<svg width="22" height="22" viewBox="0 0 22 22" fill="none" xmlns="http://www.w3.org/2000/svg">
<path d="M19.5936 11C19.5936 11.2735 19.4849 11.5358 19.2915 11.7292C19.0981 11.9226 18.8358 12.0312 18.5623 12.0312L5.92952 12.0312L10.357 16.4578C10.5508 16.6516 10.6596 16.9143 10.6596 17.1883C10.6596 17.4623 10.5508 17.725 10.357 17.9188C10.1633 18.1125 9.90053 18.2214 9.62655 18.2214C9.35258 18.2214 9.08982 18.1125 8.89609 17.9188L2.70859 11.7313C2.61245 11.6355 2.53616 11.5216 2.48412 11.3963C2.43207 11.2709 2.40527 11.1365 2.40527 11.0008C2.40527 10.8651 2.43207 10.7307 2.48412 10.6053C2.53616 10.48 2.61245 10.3661 2.70859 10.2703L8.89609 4.08284C8.99201 3.98692 9.10589 3.91082 9.23123 3.85891C9.35656 3.80699 9.49089 3.78027 9.62655 3.78027C9.76222 3.78027 9.89655 3.80699 10.0219 3.85891C10.1472 3.91082 10.2611 3.98692 10.357 4.08284C10.453 4.17877 10.529 4.29265 10.581 4.41799C10.6329 4.54332 10.6596 4.67765 10.6596 4.81331C10.6596 4.94897 10.6329 5.08331 10.581 5.20864C10.529 5.33397 10.453 5.44785 10.357 5.54378L5.92952 9.9687L18.5623 9.9687C18.8358 9.9687 19.0981 10.0774 19.2915 10.2707C19.4849 10.4641 19.5936 10.7264 19.5936 11Z" fill="white"/>
</svg>
