<svg width="16" height="10" viewBox="0 0 16 10" fill="none" xmlns="http://www.w3.org/2000/svg">
<path d="M15.6048 1.97958L8.72982 8.85458C8.63401 8.95072 8.52017 9.027 8.39482 9.07905C8.26947 9.1311 8.13507 9.15789 7.99935 9.15789C7.86362 9.15789 7.72923 9.1311 7.60388 9.07905C7.47853 9.027 7.36469 8.95072 7.26888 8.85458L0.393879 1.97958C0.200146 1.78584 0.0913086 1.52309 0.0913086 1.24911C0.0913086 0.975129 0.200146 0.712372 0.393879 0.518639C0.587611 0.324907 0.850369 0.21607 1.12435 0.21607C1.39833 0.21607 1.66108 0.324907 1.85482 0.518639L8.00021 6.66403L14.1456 0.51778C14.3393 0.324048 14.6021 0.21521 14.8761 0.21521C15.15 0.21521 15.4128 0.324048 15.6065 0.51778C15.8003 0.711513 15.9091 0.97427 15.9091 1.24825C15.9091 1.52223 15.8003 1.78499 15.6065 1.97872L15.6048 1.97958Z" fill="white"/>
</svg>
