<svg width="1439" height="284" viewBox="0 0 1439 284" fill="none" xmlns="http://www.w3.org/2000/svg">
<g style="mix-blend-mode:hard-light" opacity="0.3">
<mask id="mask0_443_48120" style="mask-type:luminance" maskUnits="userSpaceOnUse" x="1" y="19" width="1438" height="227">
<path d="M1438.99 165.93C1303.71 98.4184 1156.75 30.42 954.082 22.4956C776.695 15.5602 675.888 74.122 574.899 132.793C441.9 210.056 308.584 287.502 1.09375 218.224V215.913C306.771 285.143 439.096 208.289 571.091 131.606C672.865 72.4809 774.458 13.4639 954.504 20.5026C1157.24 28.4298 1304.1 95.6238 1438.99 162.842V165.93Z" fill="white"/>
</mask>
<g mask="url(#mask0_443_48120)">
<path d="M1438.99 13.4644H1.09375V287.502H1438.99V13.4644Z" fill="url(#paint0_linear_443_48120)"/>
</g>
<mask id="mask1_443_48120" style="mask-type:luminance" maskUnits="userSpaceOnUse" x="1" y="76" width="1438" height="201">
<path d="M1438.99 245.873C1313.63 292.161 1219.64 280.877 1132.99 248.325C1088.86 231.748 1046.78 209.66 1003.41 186.894C909.554 137.631 809.552 85.1393 670.808 79.3505C556.319 74.5725 493.073 115.207 429.922 155.79C338.146 214.771 246.477 273.626 1.09375 197.46V193.987C244.316 270.208 334.658 212.167 425.148 154.018C489.306 112.789 553.556 71.5062 671.302 76.4215C812.361 82.3067 913.19 135.226 1007.81 184.895C1051.03 207.578 1092.95 229.582 1136.67 246.006C1221.87 278.009 1314.53 288.849 1438.99 242.124V245.873Z" fill="white"/>
</mask>
<g mask="url(#mask1_443_48120)">
<path d="M1438.99 71.5059H1.09375V292.161H1438.99V71.5059Z" fill="url(#paint1_linear_443_48120)"/>
</g>
<mask id="mask2_443_48120" style="mask-type:luminance" maskUnits="userSpaceOnUse" x="1" y="74" width="1438" height="196">
<path d="M1438.99 238.195C1312.5 284.948 1216.72 273.015 1127.74 240.082C1084.41 224.039 1042.78 202.998 999.975 181.363C905.375 133.55 804.989 82.8049 668.521 77.569C555.734 73.2393 492.25 112.962 428.908 152.598C336.275 210.561 243.894 268.318 1.09375 192.412V188.917C241.787 264.888 332.851 207.94 424.182 150.794C488.518 110.536 553.006 70.188 668.993 74.6386C807.727 79.9614 908.934 131.123 1004.3 179.33C1046.92 200.869 1088.36 221.818 1131.37 237.736C1218.91 270.14 1313.39 281.625 1438.99 234.418V238.196L1438.99 238.195Z" fill="white"/>
</mask>
<g mask="url(#mask2_443_48120)">
<path d="M1438.99 70.188H1.09375V284.948H1438.99V70.188Z" fill="url(#paint2_linear_443_48120)"/>
</g>
<mask id="mask3_443_48120" style="mask-type:luminance" maskUnits="userSpaceOnUse" x="1" y="72" width="1438" height="190">
<path d="M1438.99 230.5C1311.2 277.786 1213.46 265.156 1122.02 231.807C1079.58 216.331 1038.56 196.363 996.487 175.889C901.206 129.512 800.487 80.4923 666.306 75.7985C555.236 71.9089 491.528 110.72 428.008 149.413C334.508 206.369 241.39 263.064 1.09375 187.4V183.895C239.311 259.627 331.135 203.735 423.333 147.572C487.834 108.28 552.531 68.8671 666.728 72.8667C803.136 77.6393 904.666 127.059 1000.73 173.81C1042.61 194.19 1083.44 214.069 1125.62 229.448C1215.65 262.284 1312.09 274.472 1438.99 226.717V230.5Z" fill="white"/>
</mask>
<g mask="url(#mask3_443_48120)">
<path d="M1438.99 68.8672H1.09375V277.786H1438.99V68.8672Z" fill="url(#paint3_linear_443_48120)"/>
</g>
<mask id="mask4_443_48120" style="mask-type:luminance" maskUnits="userSpaceOnUse" x="1" y="70" width="1438" height="184">
<path d="M1438.99 222.798C1309.72 270.687 1209.87 257.296 1115.8 223.493C1074.35 208.602 1034.1 189.742 992.936 170.453C897.014 125.51 796.038 78.1961 664.153 74.0281C554.822 70.5706 490.902 108.467 427.23 146.222C332.823 202.194 238.922 257.861 1.09375 182.43V178.908C236.901 254.42 329.513 199.549 422.59 144.36C487.247 106.026 552.147 67.5451 664.529 71.1004C798.614 75.3364 900.408 123.035 997.1 168.34C1038.1 187.554 1078.2 206.342 1119.36 221.128C1212.04 254.425 1310.6 267.401 1438.99 219.028V222.798Z" fill="white"/>
</mask>
<g mask="url(#mask4_443_48120)">
<path d="M1438.99 67.5454H1.09375V270.687H1438.99V67.5454Z" fill="url(#paint4_linear_443_48120)"/>
</g>
<mask id="mask5_443_48120" style="mask-type:luminance" maskUnits="userSpaceOnUse" x="1" y="69" width="1438" height="178">
<path d="M1439 215.106C1308.05 263.684 1205.9 249.438 1109.01 215.143C1068.74 200.892 1029.43 183.163 989.34 165.075C892.838 121.552 791.669 75.9225 662.062 72.272C554.497 69.2384 490.392 106.221 426.572 143.046C331.26 198.04 236.515 252.669 1.09961 177.468V173.965C234.566 249.273 327.984 195.384 421.986 141.148C486.77 103.766 551.845 66.2237 662.392 69.343C794.168 73.0518 896.143 119.047 993.41 162.919C1033.36 180.936 1072.52 198.598 1112.55 212.764C1208.05 246.572 1308.92 260.406 1439 211.329V215.108L1439 215.106Z" fill="white"/>
</mask>
<g mask="url(#mask5_443_48120)">
<path d="M1439 66.2236H1.09668V263.683H1439V66.2236Z" fill="url(#paint5_linear_443_48120)"/>
</g>
<mask id="mask6_443_48120" style="mask-type:luminance" maskUnits="userSpaceOnUse" x="1" y="67" width="1439" height="172">
<path d="M1439 207.417C1306.15 256.772 1201.5 241.57 1101.61 206.74C1062.62 193.147 1024.49 176.59 985.674 159.741C888.659 117.632 787.36 73.6646 660.026 70.5196C554.245 67.9003 489.985 103.973 426.036 139.871C329.781 193.906 234.172 247.534 1.09961 172.554V169.028C232.275 244.136 326.56 191.233 421.49 137.942C486.396 101.508 551.614 64.8992 660.313 67.5905C789.791 70.7859 891.885 115.103 989.673 157.549C1028.39 174.355 1066.44 190.868 1105.1 204.348C1203.63 238.703 1307.02 253.49 1439 203.617V207.416L1439 207.417Z" fill="white"/>
</mask>
<g mask="url(#mask6_443_48120)">
<path d="M1439 64.8989H1.09668V256.772H1439V64.8989Z" fill="url(#paint6_linear_443_48120)"/>
</g>
<mask id="mask7_443_48120" style="mask-type:luminance" maskUnits="userSpaceOnUse" x="1" y="65" width="1438" height="167">
<path d="M1439 199.739C1304.01 249.972 1196.61 233.681 1093.49 198.265C1056.09 185.417 1019.3 170.058 981.95 154.459C884.475 113.752 783.125 71.4252 658.043 68.7733C554.049 66.5629 489.663 101.72 425.611 136.697C328.398 189.785 231.884 242.452 1.09961 167.675V164.145C230.048 239.057 325.251 187.111 421.142 134.745C486.139 99.2483 551.479 63.5727 658.302 65.8442C785.459 68.5382 887.614 111.201 985.852 152.231C1023.09 167.778 1059.76 183.093 1096.95 195.866C1198.73 230.82 1304.87 246.689 1439 195.92V199.741L1439 199.739Z" fill="white"/>
</mask>
<g mask="url(#mask7_443_48120)">
<path d="M1439 63.5718H1.09668V249.972H1439V63.5718Z" fill="url(#paint7_linear_443_48120)"/>
</g>
<mask id="mask8_443_48120" style="mask-type:luminance" maskUnits="userSpaceOnUse" x="1" y="64" width="1438" height="161">
<path d="M1438.99 192.065C1301.57 243.294 1191.18 225.767 1084.56 189.701C1048.92 177.644 1013.77 163.527 978.181 149.233C880.294 109.915 778.944 69.2071 656.124 67.0375C553.951 65.2238 489.47 99.4716 425.33 133.537C327.13 185.696 229.688 237.44 1.09277 162.844V159.294C227.883 234.032 324.026 183.005 420.907 131.548C485.977 96.9895 551.394 62.2445 656.328 64.1084C781.191 66.3133 883.339 107.342 981.989 146.967C1017.5 161.23 1052.56 175.31 1087.97 187.29C1193.26 222.91 1302.42 240.018 1438.99 188.231V192.067L1438.99 192.065Z" fill="white"/>
</mask>
<g mask="url(#mask8_443_48120)">
<path d="M1438.99 62.2446H1.09375V243.294H1438.99V62.2446Z" fill="url(#paint8_linear_443_48120)"/>
</g>
<mask id="mask9_443_48120" style="mask-type:luminance" maskUnits="userSpaceOnUse" x="1" y="62" width="1438" height="155">
<path d="M1438.99 184.378C1298.79 236.744 1185.08 217.802 1074.66 181.017C1041.21 169.87 1007.96 157.029 974.36 144.054C876.127 106.119 774.854 67.0076 654.268 65.3067C553.941 63.8829 489.386 97.2191 425.188 130.379C325.974 181.623 227.532 232.439 1.09277 158.029V154.49C225.804 229.074 322.918 178.924 420.805 128.367C485.932 94.7302 551.404 60.9118 654.426 62.3749C777.002 64.1057 879.071 103.524 978.079 141.755C1011.5 154.666 1044.58 167.441 1078.05 178.591C1187.16 214.94 1299.65 233.49 1438.99 180.546V184.377V184.378Z" fill="white"/>
</mask>
<g mask="url(#mask9_443_48120)">
<path d="M1438.99 60.9131H1.09375V236.743H1438.99V60.9131Z" fill="url(#paint9_linear_443_48120)"/>
</g>
<mask id="mask10_443_48120" style="mask-type:luminance" maskUnits="userSpaceOnUse" x="1" y="60" width="1438" height="150">
<path d="M1438.99 176.669C1295.62 230.337 1178.2 209.751 1063.63 172.162C1032.55 161.968 1001.64 150.498 970.488 138.934C871.961 102.367 770.815 64.8286 652.471 63.5814C553.997 62.5354 489.412 94.9667 425.172 127.23C324.939 177.568 225.453 227.488 1.09277 153.251V149.707C223.785 224.135 321.942 174.863 420.863 125.185C486.013 92.467 551.501 59.5778 652.591 60.6511C772.881 61.9145 874.82 99.7475 974.111 136.6C1005.15 148.12 1035.94 159.547 1066.97 169.728C1180.27 206.899 1296.48 227.111 1438.99 172.849V176.669H1438.99Z" fill="white"/>
</mask>
<g mask="url(#mask10_443_48120)">
<path d="M1438.99 59.5776H1.09375V230.337H1438.99V59.5776Z" fill="url(#paint10_linear_443_48120)"/>
</g>
<mask id="mask11_443_48120" style="mask-type:luminance" maskUnits="userSpaceOnUse" x="1" y="58" width="1438" height="145">
<path d="M1438.99 169.045C1256.97 237.384 1114.18 186.494 966.564 133.866C867.803 98.6552 766.845 62.6616 650.733 61.8628C554.128 61.1876 489.558 92.7142 425.303 124.086C324.015 173.545 223.458 222.61 1.09375 148.521V144.955C221.831 219.242 321.076 170.822 421.05 122.009C486.21 90.2009 551.674 58.2409 650.807 58.9324C768.838 59.7462 870.566 96.0169 970.093 131.498C1116.45 183.68 1258.02 234.102 1438.99 165.087V169.046V169.045Z" fill="white"/>
</mask>
<g mask="url(#mask11_443_48120)">
<path d="M1438.99 58.2397H1.09375V237.384H1438.99V58.2397Z" fill="url(#paint11_linear_443_48120)"/>
</g>
<mask id="mask12_443_48120" style="mask-type:luminance" maskUnits="userSpaceOnUse" x="1" y="57" width="1438" height="138">
<path d="M1438.99 161.343C1257.34 229.711 1111.93 179.971 962.603 128.854C863.656 94.9856 762.955 60.5137 649.058 60.1469C554.351 59.8317 489.819 90.4589 425.583 120.95C323.214 169.538 221.539 217.787 1.09375 143.835V140.254C219.965 214.42 320.346 166.81 421.396 118.846C486.512 87.9401 551.923 56.8958 649.083 57.2178C764.862 57.5914 866.336 92.3269 966.038 126.456C1114.15 177.158 1258.36 226.468 1438.99 157.403V161.344L1438.99 161.343Z" fill="white"/>
</mask>
<g mask="url(#mask12_443_48120)">
<path d="M1438.99 56.896H1.09375V229.712H1438.99V56.896Z" fill="url(#paint12_linear_443_48120)"/>
</g>
<mask id="mask13_443_48120" style="mask-type:luminance" maskUnits="userSpaceOnUse" x="1" y="55" width="1439" height="133">
<path d="M1439 153.641C1257.64 222.077 1109.61 173.506 958.595 123.903C859.516 91.3612 759.123 58.3877 647.442 58.4394C554.662 58.4733 490.209 88.2066 426.013 117.824C322.551 165.557 219.689 212.99 1.09961 139.171V135.59C218.179 209.657 319.737 162.818 421.892 115.686C486.94 85.6729 552.252 55.5456 647.445 55.5103C760.966 55.4573 862.117 88.6808 961.941 121.468C1111.78 170.683 1258.64 218.878 1439 149.723V153.643L1439 153.641Z" fill="white"/>
</mask>
<g mask="url(#mask13_443_48120)">
<path d="M1439 55.4575H1.09668V222.077H1439V55.4575Z" fill="url(#paint13_linear_443_48120)"/>
</g>
<mask id="mask14_443_48120" style="mask-type:luminance" maskUnits="userSpaceOnUse" x="1" y="53" width="1438" height="128">
<path d="M1438.99 145.946C1257.88 214.489 1107.22 167.099 954.54 119.009C855.395 87.7799 755.365 56.2764 645.883 56.7383C555.025 57.1105 490.702 85.9499 426.592 114.701C322.014 161.596 217.909 208.241 1.09375 134.54V130.957C216.455 204.928 319.248 158.85 422.524 112.541C487.488 83.4121 552.651 54.191 645.835 53.8079C757.129 53.3392 857.904 85.0777 957.791 116.539C1109.32 164.266 1258.84 211.319 1438.99 142.036V145.946H1438.99Z" fill="white"/>
</mask>
<g mask="url(#mask14_443_48120)">
<path d="M1438.99 53.3394H1.09375V214.49H1438.99V53.3394Z" fill="url(#paint14_linear_443_48120)"/>
</g>
<mask id="mask15_443_48120" style="mask-type:luminance" maskUnits="userSpaceOnUse" x="1" y="52" width="1438" height="122">
<path d="M1439 138.265C1258.07 206.944 1104.76 160.738 950.463 114.171C851.302 84.2423 751.699 54.1843 644.391 55.0442C555.478 55.7466 491.343 83.7016 427.34 111.595C321.621 157.669 216.229 203.572 1.09961 129.964V126.353C214.808 200.245 318.913 154.91 423.341 109.401C488.165 81.1475 553.132 52.8352 644.295 52.1152C753.357 51.2403 853.707 81.5224 953.615 111.677C1106.8 157.908 1259 203.785 1439 134.334V138.265Z" fill="white"/>
</mask>
<g mask="url(#mask15_443_48120)">
<path d="M1439 51.2402H1.09668V206.945H1439V51.2402Z" fill="url(#paint15_linear_443_48120)"/>
</g>
<mask id="mask16_443_48120" style="mask-type:luminance" maskUnits="userSpaceOnUse" x="1" y="50" width="1438" height="117">
<path d="M1438.99 130.593C1258.19 199.454 1102.23 154.447 946.338 109.397C847.208 80.7533 748.088 52.1082 642.951 53.3554C556.003 54.3757 492.076 81.4503 428.233 108.494C321.36 153.763 214.629 198.958 1.09277 125.425V121.809C213.248 195.639 318.713 151 424.305 106.275C488.964 78.8867 553.694 51.4711 642.814 50.4264C749.679 49.1615 849.531 78.0145 949.401 106.872C1104.21 151.609 1259.09 196.3 1438.99 126.64V130.595V130.593Z" fill="white"/>
</mask>
<g mask="url(#mask16_443_48120)">
<path d="M1438.99 49.1602H1.09375V199.454H1438.99V49.1602Z" fill="url(#paint16_linear_443_48120)"/>
</g>
<mask id="mask17_443_48120" style="mask-type:luminance" maskUnits="userSpaceOnUse" x="1" y="48" width="1438" height="113">
<path d="M1438.99 122.922C1258.25 192 1099.64 148.2 942.189 104.676C843.148 77.3001 744.565 50.0489 641.581 51.6656C556.605 52.9916 492.955 79.1913 429.298 105.396C321.24 149.878 213.103 194.375 1.09277 120.911V117.296C211.792 191.09 318.657 147.112 425.437 103.156C489.895 76.6236 554.332 50.0978 641.395 48.7379C746.062 47.0927 845.375 74.5464 945.153 102.126C1101.55 145.362 1259.14 188.854 1438.99 118.951V122.922Z" fill="white"/>
</mask>
<g mask="url(#mask17_443_48120)">
<path d="M1438.99 47.0928H1.09375V194.376H1438.99V47.0928Z" fill="url(#paint17_linear_443_48120)"/>
</g>
<mask id="mask18_443_48120" style="mask-type:luminance" maskUnits="userSpaceOnUse" x="1" y="46" width="1438" height="110">
<path d="M1438.99 115.259C1258.27 184.59 1096.97 142.018 938.016 100.026C839.115 73.8965 741.108 48.0079 640.27 49.986C557.3 51.6094 493.976 76.9424 430.545 102.32C321.292 146.029 211.673 189.85 1.09375 116.437V112.819C210.394 186.579 318.747 143.249 426.732 100.049C490.933 74.3625 555.03 48.7211 640.036 47.0583C742.529 45.0449 841.248 71.1237 940.871 97.4416C1098.83 139.172 1259.13 181.459 1438.99 111.276V115.26L1438.99 115.259Z" fill="white"/>
</mask>
<g mask="url(#mask18_443_48120)">
<path d="M1438.99 45.0439H1.09375V189.849H1438.99V45.0439Z" fill="url(#paint18_linear_443_48120)"/>
</g>
<mask id="mask19_443_48120" style="mask-type:luminance" maskUnits="userSpaceOnUse" x="1" y="45" width="1438" height="107">
<path d="M1438.99 107.564C1258.23 177.197 1094.25 135.894 933.816 95.4309C835.101 70.5354 737.735 45.9795 639.017 48.3108C558.053 50.2182 495.115 74.6899 431.963 99.2471C321.493 142.202 210.336 185.394 1.09375 112.008V108.37C209.1 182.119 319.007 139.418 428.216 96.9511C492.128 72.1005 555.815 47.3327 638.737 45.3818C739.064 43.0125 837.142 67.7463 936.565 92.8225C1096.04 133.042 1259.06 174.106 1438.99 103.609V107.564Z" fill="white"/>
</mask>
<g mask="url(#mask19_443_48120)">
<path d="M1438.99 43.0127H1.09375V185.395H1438.99V43.0127Z" fill="url(#paint19_linear_443_48120)"/>
</g>
<mask id="mask20_443_48120" style="mask-type:luminance" maskUnits="userSpaceOnUse" x="1" y="82" width="1438" height="202">
<path d="M1438.99 174.471C1092.96 352.97 925.832 278.67 736.451 194.433C624.585 144.675 504.876 91.4289 335.612 85.5613C196.519 80.7398 117.498 121.448 38.3384 162.227C26.0015 168.581 13.6595 174.937 1.09375 181.126V177.909C12.4621 172.27 23.6576 166.505 34.8506 160.74C114.785 119.562 194.577 78.4548 335.947 83.3564C506.897 89.2838 627.239 142.812 739.702 192.835C927.845 276.522 1093.82 350.288 1438.99 171.177V174.472L1438.99 174.471Z" fill="white"/>
</mask>
<g mask="url(#mask20_443_48120)">
<path d="M1438.99 78.4531H1.09375V352.969H1438.99V78.4531Z" fill="url(#paint20_linear_443_48120)"/>
</g>
<mask id="mask21_443_48120" style="mask-type:luminance" maskUnits="userSpaceOnUse" x="0" y="0" width="1439" height="254">
<path d="M1438.99 19.2653C1383.79 10.7173 1325.33 4.97059 1262.86 2.89336C1027.97 -4.91968 894.477 61.0408 760.749 127.125C584.633 214.151 408.093 301.384 0.916016 223.351V220.748C405.696 298.727 580.922 212.162 755.705 125.789C890.476 59.1932 1025 -7.28085 1263.42 0.644949C1325.69 2.71674 1383.96 8.38462 1438.99 16.8049V19.2653Z" fill="white"/>
</mask>
<g mask="url(#mask21_443_48120)">
<path d="M1438.99 -7.28076H0.916016V301.384H1438.99V-7.28076Z" fill="url(#paint21_linear_443_48120)"/>
</g>
</g>
<defs>
<linearGradient id="paint0_linear_443_48120" x1="705.77" y1="-18.7755" x2="730.545" y2="1010" gradientUnits="userSpaceOnUse">
<stop stop-color="#808080"/>
<stop offset="1" stop-color="white"/>
</linearGradient>
<linearGradient id="paint1_linear_443_48120" x1="1016.56" y1="-134.171" x2="783.45" y2="735.674" gradientUnits="userSpaceOnUse">
<stop stop-color="#87BE42"/>
<stop offset="1" stop-color="white"/>
</linearGradient>
<linearGradient id="paint2_linear_443_48120" x1="1003.08" y1="-133.196" x2="782.612" y2="714.37" gradientUnits="userSpaceOnUse">
<stop stop-color="#87BE42"/>
<stop offset="1" stop-color="white"/>
</linearGradient>
<linearGradient id="paint3_linear_443_48120" x1="1037.51" y1="-131.563" x2="852.755" y2="489.706" gradientUnits="userSpaceOnUse">
<stop stop-color="#87BE42"/>
<stop offset="1" stop-color="white"/>
</linearGradient>
<linearGradient id="paint4_linear_443_48120" x1="1034.17" y1="-132.559" x2="849.41" y2="488.71" gradientUnits="userSpaceOnUse">
<stop stop-color="#87BE42"/>
<stop offset="1" stop-color="white"/>
</linearGradient>
<linearGradient id="paint5_linear_443_48120" x1="1030.86" y1="-133.542" x2="846.104" y2="487.722" gradientUnits="userSpaceOnUse">
<stop stop-color="#87BE42"/>
<stop offset="1" stop-color="white"/>
</linearGradient>
<linearGradient id="paint6_linear_443_48120" x1="1027.59" y1="-134.516" x2="842.83" y2="486.746" gradientUnits="userSpaceOnUse">
<stop stop-color="#87BE42"/>
<stop offset="1" stop-color="white"/>
</linearGradient>
<linearGradient id="paint7_linear_443_48120" x1="1024.35" y1="-135.477" x2="839.599" y2="485.786" gradientUnits="userSpaceOnUse">
<stop stop-color="#87BE42"/>
<stop offset="1" stop-color="white"/>
</linearGradient>
<linearGradient id="paint8_linear_443_48120" x1="1021.17" y1="-136.423" x2="836.414" y2="484.838" gradientUnits="userSpaceOnUse">
<stop stop-color="#87BE42"/>
<stop offset="1" stop-color="white"/>
</linearGradient>
<linearGradient id="paint9_linear_443_48120" x1="1018.04" y1="-137.356" x2="833.282" y2="483.907" gradientUnits="userSpaceOnUse">
<stop stop-color="#87BE42"/>
<stop offset="1" stop-color="white"/>
</linearGradient>
<linearGradient id="paint10_linear_443_48120" x1="1014.96" y1="-138.271" x2="830.202" y2="482.993" gradientUnits="userSpaceOnUse">
<stop stop-color="#87BE42"/>
<stop offset="1" stop-color="white"/>
</linearGradient>
<linearGradient id="paint11_linear_443_48120" x1="1017.23" y1="-137.596" x2="832.473" y2="483.666" gradientUnits="userSpaceOnUse">
<stop stop-color="#87BE42"/>
<stop offset="1" stop-color="white"/>
</linearGradient>
<linearGradient id="paint12_linear_443_48120" x1="1013.64" y1="-138.661" x2="828.888" y2="482.603" gradientUnits="userSpaceOnUse">
<stop stop-color="#87BE42"/>
<stop offset="1" stop-color="white"/>
</linearGradient>
<linearGradient id="paint13_linear_443_48120" x1="1010.04" y1="-139.734" x2="825.285" y2="481.529" gradientUnits="userSpaceOnUse">
<stop stop-color="#87BE42"/>
<stop offset="1" stop-color="white"/>
</linearGradient>
<linearGradient id="paint14_linear_443_48120" x1="1006.18" y1="-140.882" x2="821.424" y2="480.379" gradientUnits="userSpaceOnUse">
<stop stop-color="#87BE42"/>
<stop offset="1" stop-color="white"/>
</linearGradient>
<linearGradient id="paint15_linear_443_48120" x1="1002.35" y1="-142.022" x2="817.593" y2="479.238" gradientUnits="userSpaceOnUse">
<stop stop-color="#87BE42"/>
<stop offset="1" stop-color="white"/>
</linearGradient>
<linearGradient id="paint16_linear_443_48120" x1="998.539" y1="-143.154" x2="813.786" y2="478.104" gradientUnits="userSpaceOnUse">
<stop stop-color="#87BE42"/>
<stop offset="1" stop-color="white"/>
</linearGradient>
<linearGradient id="paint17_linear_443_48120" x1="995.699" y1="-143.999" x2="810.945" y2="477.262" gradientUnits="userSpaceOnUse">
<stop stop-color="#87BE42"/>
<stop offset="1" stop-color="white"/>
</linearGradient>
<linearGradient id="paint18_linear_443_48120" x1="993.086" y1="-144.776" x2="808.332" y2="476.484" gradientUnits="userSpaceOnUse">
<stop stop-color="#87BE42"/>
<stop offset="1" stop-color="white"/>
</linearGradient>
<linearGradient id="paint19_linear_443_48120" x1="990.508" y1="-145.544" x2="805.755" y2="475.715" gradientUnits="userSpaceOnUse">
<stop stop-color="#87BE42"/>
<stop offset="1" stop-color="white"/>
</linearGradient>
<linearGradient id="paint20_linear_443_48120" x1="831.16" y1="75.0812" x2="763.398" y2="375.363" gradientUnits="userSpaceOnUse">
<stop stop-color="#87BE42"/>
<stop offset="1" stop-color="white"/>
</linearGradient>
<linearGradient id="paint21_linear_443_48120" x1="706.619" y1="-38.9093" x2="730.357" y2="1120.02" gradientUnits="userSpaceOnUse">
<stop stop-color="#808080"/>
<stop offset="1" stop-color="white"/>
</linearGradient>
</defs>
</svg>
