<svg width="126" height="23" viewBox="0 0 126 23" fill="none" xmlns="http://www.w3.org/2000/svg">
<g clip-path="url(#clip0_213_423)">
<path d="M29.7229 9.65485C31.7631 9.65485 32.381 11.4887 32.381 12.4998H26.8826C26.8826 11.0729 27.8916 9.65485 29.7274 9.65485H29.7229ZM35.5813 18.1458C34.999 18.3384 34.3945 18.5135 33.79 18.636C33.0788 18.7761 32.3454 18.8548 31.5987 18.8548C29.1851 18.8548 27.296 18.0626 26.9893 16.1806H37.2837C37.3593 15.8174 37.4971 14.942 37.4971 14.0229C37.4971 9.74238 35.3324 5.81641 29.8163 5.81641C24.3001 5.81641 21.6021 9.95247 21.6021 14.5919C21.6021 19.9359 25.398 22.9953 30.6963 22.9953C32.0476 22.9953 33.0344 22.8771 33.8478 22.7152C34.6923 22.5445 35.6258 22.2731 36.4125 21.923L35.5813 18.1458Z" fill="white"/>
<path d="M109.643 9.65485C111.683 9.65485 112.301 11.4887 112.301 12.4998H106.803C106.803 11.0729 107.812 9.65485 109.647 9.65485H109.643ZM115.506 18.1458C114.928 18.3384 114.319 18.5135 113.714 18.636C113.003 18.7761 112.27 18.8548 111.523 18.8548C109.109 18.8548 107.22 18.0626 106.914 16.1806H117.208C117.284 15.8174 117.417 14.942 117.417 14.0229C117.417 9.74238 115.252 5.81641 109.736 5.81641C104.22 5.81641 101.522 9.95247 101.522 14.5919C101.522 19.9359 105.318 22.9953 110.616 22.9953C111.968 22.9953 112.95 22.8771 113.768 22.7152C114.612 22.5445 115.546 22.2731 116.332 21.923L115.501 18.1458H115.506Z" fill="white"/>
<path d="M40.0176 0.367188V22.6406H45.6004V0.367188H40.0176Z" fill="white"/>
<path d="M56.8105 18.9162C54.9969 18.9162 53.8057 17.1524 53.8057 14.4213C53.8057 12.246 54.6058 9.92631 56.8282 9.92631C59.0507 9.92631 59.7397 12.3335 59.7397 14.3994C59.7397 17.1436 58.5795 18.9206 56.8105 18.9206V18.9162ZM56.7349 22.9954C61.0909 22.9954 65.5003 20.2949 65.5003 14.2593C65.5003 10.666 63.34 5.84277 57.0105 5.84277C50.6809 5.84277 48.1162 10.5172 48.1162 14.5351C48.1162 19.5727 51.6677 22.9954 56.7393 22.9954H56.7349Z" fill="white"/>
<path d="M67.9272 6.20605V22.6453H73.5101V6.20605H67.9272Z" fill="white"/>
<path d="M67.9272 0.37207V4.63944H73.5101V0.37207H67.9272Z" fill="white"/>
<path d="M77.9325 1.73337V6.20207H75.7856V10.2769H77.9325V17.0127C77.9325 20.7155 79.6527 22.9827 83.5776 22.9827C84.3154 22.9827 85.1466 22.9083 85.9112 22.7945C86.6179 22.6894 87.2491 22.5625 87.5247 22.475C87.5247 22.475 87.4847 18.1813 87.4847 18.1638C87.3069 18.2251 86.0401 18.4352 85.5778 18.4352C85.1155 18.4352 84.4621 18.3783 83.9865 17.8968C83.6443 17.5554 83.4042 16.9952 83.4042 16.0892V10.2725H87.0135V6.19769H83.4042V1.125L77.9414 1.73337H77.9325Z" fill="white"/>
<path d="M90.8495 1.73337V6.20207H88.7026V10.2769H90.8495V17.0127C90.8495 20.7155 92.5697 22.9827 96.4946 22.9827C97.2324 22.9827 98.0636 22.9083 98.8282 22.7945C99.5393 22.6894 100.166 22.5625 100.442 22.475C100.442 22.475 100.402 18.1813 100.402 18.1638C100.224 18.2251 98.9571 18.4352 98.4948 18.4352C98.0325 18.4352 97.3791 18.3783 96.9035 17.8968C96.5612 17.5554 96.3212 16.9952 96.3212 16.0892V10.2725H99.9305V6.19769H96.3212V1.125L90.854 1.73337H90.8495Z" fill="white"/>
<path d="M119.822 19.9579C119.822 18.2772 121.204 16.916 122.911 16.916C124.618 16.916 126 18.2772 126 19.9579C126 21.6386 124.618 22.9997 122.911 22.9997C121.204 22.9997 119.822 21.6386 119.822 19.9579Z" fill="#99CA49"/>
<path d="M0 22.6674H6.31622C6.74294 22.6674 7.26299 22.6586 7.66748 22.6367C16.3128 22.199 19.9132 17.157 19.9132 11.3402C19.9132 4.07041 14.9349 0 6.34289 0C4.13822 0 2.17801 0.0744053 0 0.253853V22.6674ZM8.07641 18.2293C7.84527 18.2468 7.49413 18.2556 7.27188 18.2556H5.5028V4.56499C6.1162 4.51246 6.89406 4.47307 7.41412 4.47307C10.6589 4.47307 14.117 6.54767 14.117 11.3359C14.117 16.1241 10.8678 17.9973 8.07641 18.2249V18.2293Z" fill="white"/>
</g>
<defs>
<clipPath id="clip0_213_423">
<rect width="126" height="23" fill="white"/>
</clipPath>
</defs>
</svg>
