<svg width="126" height="23" viewBox="0 0 126 23" fill="none" xmlns="http://www.w3.org/2000/svg">
<g clip-path="url(#clip0_488_57487)">
<path d="M29.7234 9.65485C31.7636 9.65485 32.3815 11.4887 32.3815 12.4998H26.8831C26.8831 11.0729 27.8921 9.65485 29.7278 9.65485H29.7234ZM35.5818 18.1458C34.9995 18.3384 34.395 18.5135 33.7905 18.636C33.0793 18.7761 32.3459 18.8548 31.5992 18.8548C29.1856 18.8548 27.2965 18.0626 26.9898 16.1806H37.2842C37.3598 15.8174 37.4976 14.942 37.4976 14.0229C37.4976 9.74238 35.3329 5.81641 29.8167 5.81641C24.3006 5.81641 21.6025 9.95247 21.6025 14.5919C21.6025 19.9359 25.3985 22.9953 30.6968 22.9953C32.0481 22.9953 33.0349 22.8771 33.8483 22.7152C34.6928 22.5445 35.6262 22.2731 36.413 21.923L35.5818 18.1458Z" fill="black"/>
<path d="M109.642 9.65485C111.683 9.65485 112.3 11.4887 112.3 12.4998H106.802C106.802 11.0729 107.811 9.65485 109.647 9.65485H109.642ZM115.505 18.1458C114.927 18.3384 114.318 18.5135 113.714 18.636C113.003 18.7761 112.269 18.8548 111.523 18.8548C109.109 18.8548 107.22 18.0626 106.913 16.1806H117.208C117.283 15.8174 117.417 14.942 117.417 14.0229C117.417 9.74238 115.252 5.81641 109.736 5.81641C104.22 5.81641 101.521 9.95247 101.521 14.5919C101.521 19.9359 105.317 22.9953 110.616 22.9953C111.967 22.9953 112.949 22.8771 113.767 22.7152C114.612 22.5445 115.545 22.2731 116.332 21.923L115.501 18.1458H115.505Z" fill="black"/>
<path d="M40.0176 0.367188V22.6406H45.6004V0.367188H40.0176Z" fill="black"/>
<path d="M56.8105 18.9162C54.9969 18.9162 53.8057 17.1524 53.8057 14.4213C53.8057 12.246 54.6058 9.92631 56.8282 9.92631C59.0507 9.92631 59.7397 12.3335 59.7397 14.3994C59.7397 17.1436 58.5795 18.9206 56.8105 18.9206V18.9162ZM56.7349 22.9954C61.0909 22.9954 65.5003 20.2949 65.5003 14.2593C65.5003 10.666 63.34 5.84277 57.0105 5.84277C50.6809 5.84277 48.1162 10.5172 48.1162 14.5351C48.1162 19.5727 51.6677 22.9954 56.7393 22.9954H56.7349Z" fill="black"/>
<path d="M67.9268 6.20605V22.6453H73.5096V6.20605H67.9268Z" fill="black"/>
<path d="M67.9268 0.37207V4.63944H73.5096V0.37207H67.9268Z" fill="black"/>
<path d="M77.933 1.73337V6.20207H75.7861V10.2769H77.933V17.0127C77.933 20.7155 79.6532 22.9827 83.5781 22.9827C84.3159 22.9827 85.1471 22.9083 85.9116 22.7945C86.6184 22.6894 87.2496 22.5625 87.5252 22.475C87.5252 22.475 87.4852 18.1813 87.4852 18.1638C87.3074 18.2251 86.0406 18.4352 85.5783 18.4352C85.116 18.4352 84.4626 18.3783 83.987 17.8968C83.6447 17.5554 83.4047 16.9952 83.4047 16.0892V10.2725H87.014V6.19769H83.4047V1.125L77.9419 1.73337H77.933Z" fill="black"/>
<path d="M90.85 1.73337V6.20207H88.7031V10.2769H90.85V17.0127C90.85 20.7155 92.5702 22.9827 96.4951 22.9827C97.2329 22.9827 98.0641 22.9083 98.8286 22.7945C99.5398 22.6894 100.167 22.5625 100.442 22.475C100.442 22.475 100.402 18.1813 100.402 18.1638C100.224 18.2251 98.9575 18.4352 98.4953 18.4352C98.033 18.4352 97.3796 18.3783 96.904 17.8968C96.5617 17.5554 96.3217 16.9952 96.3217 16.0892V10.2725H99.931V6.19769H96.3217V1.125L90.8545 1.73337H90.85Z" fill="black"/>
<path d="M119.821 19.9579C119.821 18.2772 121.204 16.916 122.91 16.916C124.617 16.916 126 18.2772 126 19.9579C126 21.6386 124.617 22.9997 122.91 22.9997C121.204 22.9997 119.821 21.6386 119.821 19.9579Z" fill="#99CA49"/>
<path d="M0 22.6674H6.31622C6.74294 22.6674 7.26299 22.6586 7.66748 22.6367C16.3128 22.199 19.9132 17.157 19.9132 11.3402C19.9132 4.07041 14.9349 0 6.34289 0C4.13822 0 2.17801 0.0744053 0 0.253853V22.6674ZM8.07641 18.2293C7.84527 18.2468 7.49413 18.2556 7.27188 18.2556H5.5028V4.56499C6.1162 4.51246 6.89406 4.47307 7.41412 4.47307C10.6589 4.47307 14.117 6.54767 14.117 11.3359C14.117 16.1241 10.8678 17.9973 8.07641 18.2249V18.2293Z" fill="black"/>
</g>
<defs>
<clipPath id="clip0_488_57487">
<rect width="126" height="23" fill="white"/>
</clipPath>
</defs>
</svg>
