<svg id="Layer_1" data-name="Layer 1" xmlns="http://www.w3.org/2000/svg" viewBox="0 0 512 512"><defs><style>.cls-1{fill:#ffd38d;}.cls-2{fill:#6d4135;}.cls-3{opacity:0.1;}</style></defs><title>document-flat</title><path class="cls-1" d="M469.33,128V490.67A21.4,21.4,0,0,1,448,512H64a21.4,21.4,0,0,1-21.33-21.33V21.33A21.4,21.4,0,0,1,64,0H341.33a21,21,0,0,1,15,6.29L463,113A21,21,0,0,1,469.33,128Z"/><path class="cls-2" d="M341.33,298.67H170.67a21.33,21.33,0,1,1,0-42.67H341.33a21.33,21.33,0,1,1,0,42.67Z"/><path class="cls-2" d="M341.33,213.33h-64a21.33,21.33,0,0,1,0-42.67h64a21.33,21.33,0,1,1,0,42.67Z"/><rect class="cls-2" x="149.33" y="128" width="85.33" height="85.33" rx="2" ry="2"/><path class="cls-2" d="M192,384H170.67a21.33,21.33,0,1,1,0-42.67H192A21.33,21.33,0,0,1,192,384Z"/><path class="cls-2" d="M341.33,384H256a21.33,21.33,0,0,1,0-42.67h85.33a21.33,21.33,0,1,1,0,42.67Z"/><g class="cls-3"><path d="M469.33,128V490.67A21.4,21.4,0,0,1,448,512H256V0h85.33a21,21,0,0,1,15,6.29L463,113A21,21,0,0,1,469.33,128Z"/></g></svg>