<svg width="20" height="20" viewBox="0 0 20 20" fill="none" xmlns="http://www.w3.org/2000/svg">
<path fill-rule="evenodd" clip-rule="evenodd" d="M6.66669 7.35825C7.22294 7.16166 7.69177 6.77475 7.99032 6.26591C8.28888 5.75707 8.39793 5.15907 8.2982 4.57759C8.19847 3.99612 7.89638 3.46863 7.44534 3.08836C6.99429 2.70808 6.42332 2.49951 5.83336 2.49951C5.2434 2.49951 4.67243 2.70808 4.22138 3.08836C3.77033 3.46863 3.46824 3.99612 3.36852 4.57759C3.26879 5.15907 3.37784 5.75707 3.67639 6.26591C3.97495 6.77475 4.44378 7.16166 5.00002 7.35825V12.6416C4.44378 12.8382 3.97495 13.2251 3.67639 13.7339C3.37784 14.2428 3.26879 14.8408 3.36852 15.4222C3.46824 16.0037 3.77033 16.5312 4.22138 16.9115C4.67243 17.2918 5.2434 17.5003 5.83336 17.5003C6.42332 17.5003 6.99429 17.2918 7.44534 16.9115C7.89638 16.5312 8.19847 16.0037 8.2982 15.4222C8.39793 14.8408 8.28888 14.2428 7.99032 13.7339C7.69177 13.2251 7.22294 12.8382 6.66669 12.6416V7.35825ZM5.83336 4.16658C5.61234 4.16658 5.40038 4.25438 5.2441 4.41066C5.08782 4.56694 5.00002 4.7789 5.00002 4.99992C5.00002 5.22093 5.08782 5.43289 5.2441 5.58917C5.40038 5.74545 5.61234 5.83325 5.83336 5.83325C6.05437 5.83325 6.26633 5.74545 6.42261 5.58917C6.57889 5.43289 6.66669 5.22093 6.66669 4.99992C6.66669 4.7789 6.57889 4.56694 6.42261 4.41066C6.26633 4.25438 6.05437 4.16658 5.83336 4.16658ZM5.83336 14.1666C5.61234 14.1666 5.40038 14.2544 5.2441 14.4107C5.08782 14.5669 5.00002 14.7789 5.00002 14.9999C5.00002 15.2209 5.08782 15.4329 5.2441 15.5892C5.40038 15.7455 5.61234 15.8333 5.83336 15.8333C6.05437 15.8333 6.26633 15.7455 6.42261 15.5892C6.57889 15.4329 6.66669 15.2209 6.66669 14.9999C6.66669 14.7789 6.57889 14.5669 6.42261 14.4107C6.26633 14.2544 6.05437 14.1666 5.83336 14.1666ZM13.3334 12.6416V7.35825C12.7771 7.16166 12.3083 6.77475 12.0097 6.26591C11.7112 5.75707 11.6021 5.15907 11.7018 4.57759C11.8016 3.99612 12.1037 3.46863 12.5547 3.08836C13.0058 2.70808 13.5767 2.49951 14.1667 2.49951C14.7567 2.49951 15.3276 2.70808 15.7787 3.08836C16.2297 3.46863 16.5318 3.99612 16.6315 4.57759C16.7313 5.15907 16.6222 5.75707 16.3237 6.26591C16.0251 6.77475 15.5563 7.16166 15 7.35825V12.6416C15.5563 12.8382 16.0251 13.2251 16.3237 13.7339C16.6222 14.2428 16.7313 14.8408 16.6315 15.4222C16.5318 16.0037 16.2297 16.5312 15.7787 16.9115C15.3276 17.2918 14.7567 17.5003 14.1667 17.5003C13.5767 17.5003 13.0058 17.2918 12.5547 16.9115C12.1037 16.5312 11.8016 16.0037 11.7018 15.4222C11.6021 14.8408 11.7112 14.2428 12.0097 13.7339C12.3083 13.2251 12.7771 12.8382 13.3334 12.6416ZM13.3334 14.9999C13.3334 14.7789 13.4212 14.5669 13.5774 14.4107C13.7337 14.2544 13.9457 14.1666 14.1667 14.1666C14.3877 14.1666 14.5997 14.2544 14.7559 14.4107C14.9122 14.5669 15 14.7789 15 14.9999C15 15.2209 14.9122 15.4329 14.7559 15.5892C14.5997 15.7455 14.3877 15.8333 14.1667 15.8333C13.9457 15.8333 13.7337 15.7455 13.5774 15.5892C13.4212 15.4329 13.3334 15.2209 13.3334 14.9999ZM14.1667 4.16658C13.9457 4.16658 13.7337 4.25438 13.5774 4.41066C13.4212 4.56694 13.3334 4.7789 13.3334 4.99992C13.3334 5.22093 13.4212 5.43289 13.5774 5.58917C13.7337 5.74545 13.9457 5.83325 14.1667 5.83325C14.3877 5.83325 14.5997 5.74545 14.7559 5.58917C14.9122 5.43289 15 5.22093 15 4.99992C15 4.7789 14.9122 4.56694 14.7559 4.41066C14.5997 4.25438 14.3877 4.16658 14.1667 4.16658Z" fill="white"/>
</svg>
