<svg width="22" height="22" viewBox="0 0 22 22" fill="none" xmlns="http://www.w3.org/2000/svg">
<path fill-rule="evenodd" clip-rule="evenodd" d="M22 11C22 4.92492 17.0751 0 11 0C4.92487 0 0 4.92492 0 11C0 17.0751 4.92487 22 11 22C17.0751 22 22 17.0751 22 11ZM11 4.675C11.4556 4.675 11.825 5.04438 11.825 5.5V12.1C11.825 12.5556 11.4556 12.925 11 12.925C10.5444 12.925 10.175 12.5556 10.175 12.1V5.5C10.175 5.04438 10.5444 4.675 11 4.675ZM11 16.5C11.6075 16.5 12.1 16.0075 12.1 15.4C12.1 14.7925 11.6075 14.3 11 14.3C10.3925 14.3 9.9 14.7925 9.9 15.4C9.9 16.0075 10.3925 16.5 11 16.5Z" fill="#C5C5D1"/>
</svg>
