<svg width="26" height="23" viewBox="0 0 26 23" fill="none" xmlns="http://www.w3.org/2000/svg">
<path d="M19.8633 19.9581C19.8633 18.2774 21.2362 16.9163 22.9314 16.9163C24.6266 16.9163 25.9996 18.2774 25.9996 19.9581C25.9996 21.6388 24.6266 23 22.9314 23C21.2362 23 19.8633 21.6388 19.8633 19.9581Z" fill="#99CA49"/>
<path d="M0 22.6674H6.27317C6.69698 22.6674 7.21349 22.6586 7.61522 22.6367C16.2017 22.199 19.7775 17.157 19.7775 11.3402C19.7775 4.07041 14.8331 0 6.29966 0C4.11001 0 2.16316 0.0744053 0 0.253853V22.6674ZM8.02136 18.2293C7.7918 18.2468 7.44305 18.2556 7.22232 18.2556H5.4653V4.56499C6.07452 4.51246 6.84707 4.47307 7.36358 4.47307C10.5863 4.47307 14.0208 6.54767 14.0208 11.3359C14.0208 16.1241 10.7937 17.9973 8.02136 18.2249V18.2293Z" fill="white"/>
</svg>
