<svg width="20" height="20" viewBox="0 0 20 20" fill="none" xmlns="http://www.w3.org/2000/svg">
<path d="M8.5425 0.412614C8.98202 0.146297 9.4861 0.00549316 10 0.00549316C10.5139 0.00549316 11.018 0.146297 11.4575 0.412614L18.02 4.39011C18.4335 4.6407 18.7755 4.99366 19.0129 5.41494C19.2502 5.83622 19.3749 6.31157 19.375 6.79511V7.50011C19.375 7.74875 19.2762 7.98721 19.1004 8.16303C18.9246 8.33884 18.6861 8.43761 18.4375 8.43761C18.1889 8.43761 17.9504 8.33884 17.7746 8.16303C17.5988 7.98721 17.5 7.74875 17.5 7.50011V6.79511C17.5002 6.63383 17.4587 6.47524 17.3797 6.33466C17.3006 6.19408 17.1866 6.07627 17.0488 5.99261L10.4863 2.01636C10.3397 1.92743 10.1715 1.8804 10 1.8804C9.82853 1.8804 9.66035 1.92743 9.51375 2.01636L2.95125 5.99261C2.81336 6.07627 2.69938 6.19408 2.62033 6.33466C2.54128 6.47524 2.49984 6.63383 2.5 6.79511V13.2051C2.49984 13.3664 2.54128 13.525 2.62033 13.6656C2.69938 13.8062 2.81336 13.924 2.95125 14.0076L7.98625 17.0576C8.09155 17.1215 8.18325 17.2054 8.2561 17.3047C8.32895 17.404 8.38153 17.5167 8.41084 17.6363C8.44015 17.7559 8.44561 17.8801 8.42692 18.0019C8.40822 18.1236 8.36573 18.2404 8.30188 18.3457C8.23802 18.451 8.15405 18.5427 8.05476 18.6156C7.95546 18.6884 7.84279 18.741 7.72318 18.7703C7.60357 18.7996 7.47935 18.8051 7.35763 18.7864C7.2359 18.7677 7.11905 18.7252 7.01375 18.6614L1.98 15.6114C1.56609 15.3606 1.22391 15.0072 0.986534 14.5854C0.749161 14.1637 0.624636 13.6878 0.625001 13.2039V6.79511C0.625066 6.31157 0.749796 5.83622 0.987148 5.41494C1.2245 4.99366 1.56646 4.6407 1.98 4.39011L8.5425 0.412614Z" fill="white"/>
<path fill-rule="evenodd" clip-rule="evenodd" d="M14.6862 9.15646L14.6875 9.10396V8.74646C14.6875 8.49782 14.5887 8.25936 14.4129 8.08355C14.2371 7.90773 13.9986 7.80896 13.75 7.80896C13.5014 7.80896 13.2629 7.90773 13.0871 8.08355C12.9113 8.25936 12.8125 8.49782 12.8125 8.74646V9.10396L12.8138 9.15646C12.2258 9.27584 11.6664 9.50758 11.1662 9.83896C11.1541 9.82611 11.1416 9.81361 11.1287 9.80146L10.8775 9.54771C10.6998 9.38211 10.4647 9.29196 10.2218 9.29624C9.97897 9.30053 9.74724 9.39892 9.57547 9.57068C9.40371 9.74245 9.30532 9.97418 9.30103 10.2171C9.29675 10.4599 9.3869 10.695 9.5525 10.8727L9.80375 11.1265L9.84125 11.1615C9.51625 11.654 9.27875 12.2115 9.1575 12.8102C9.14085 12.8094 9.12417 12.809 9.1075 12.809H8.75C8.50136 12.809 8.2629 12.9077 8.08709 13.0835C7.91127 13.2594 7.8125 13.4978 7.8125 13.7465C7.8125 13.9951 7.91127 14.2336 8.08709 14.4094C8.2629 14.5852 8.50136 14.684 8.75 14.684H9.1075L9.155 14.6827C9.27625 15.2827 9.5125 15.8402 9.83875 16.3327C9.82678 16.3436 9.81511 16.3549 9.80375 16.3665L9.55125 16.619C9.38565 16.7967 9.2955 17.0317 9.29978 17.2746C9.30407 17.5175 9.40246 17.7492 9.57422 17.921C9.74599 18.0928 9.97772 18.1911 10.2206 18.1954C10.4635 18.1997 10.6985 18.1096 10.8763 17.944L11.13 17.6915C11.1407 17.6809 11.1511 17.6701 11.1612 17.659C11.655 17.9852 12.2138 18.2215 12.8138 18.344L12.8125 18.389V18.7465C12.8125 18.9951 12.9113 19.2336 13.0871 19.4094C13.2629 19.5852 13.5014 19.684 13.75 19.684C13.9986 19.684 14.2371 19.5852 14.4129 19.4094C14.5887 19.2336 14.6875 18.9951 14.6875 18.7465V18.389V18.344C15.2875 18.2227 15.845 17.9852 16.3375 17.659L16.37 17.6915L16.6225 17.9452C16.7994 18.1159 17.0363 18.2103 17.2821 18.208C17.5279 18.2058 17.763 18.1071 17.9367 17.9332C18.1104 17.7593 18.2089 17.5241 18.2109 17.2783C18.213 17.0325 18.1184 16.7957 17.9475 16.619L17.6962 16.3665C17.6849 16.3553 17.6732 16.3445 17.6612 16.334C17.9875 15.8402 18.2237 15.2815 18.345 14.6827H18.75C18.9986 14.6827 19.2371 14.5839 19.4129 14.4081C19.5887 14.2323 19.6875 13.9939 19.6875 13.7452C19.6875 13.4966 19.5887 13.2581 19.4129 13.0823C19.2371 12.9065 18.9986 12.8077 18.75 12.8077H18.3925L18.3425 12.8102C18.2228 12.2218 17.9906 11.6619 17.6587 11.1615L17.6962 11.1265L17.9488 10.874C18.1196 10.6972 18.2142 10.4605 18.2122 10.2146C18.2102 9.96883 18.1117 9.73365 17.938 9.55975C17.7642 9.38584 17.5291 9.28714 17.2833 9.28488C17.0375 9.28263 16.8006 9.37702 16.6237 9.54771L16.37 9.80021L16.3338 9.83771C15.8335 9.50677 15.2741 9.27546 14.6862 9.15646ZM13.75 10.9377C13.3805 10.9372 13.0146 11.0096 12.6731 11.1508C12.3317 11.292 12.0214 11.4991 11.7602 11.7604C11.4989 12.0216 11.2917 12.3319 11.1506 12.6733C11.0094 13.0148 10.937 13.3807 10.9375 13.7502C10.937 14.1197 11.0094 14.4856 11.1506 14.8271C11.2917 15.1685 11.4989 15.4788 11.7602 15.74C12.0214 16.0013 12.3317 16.2085 12.6731 16.3496C13.0146 16.4908 13.3805 16.5632 13.75 16.5627C14.1195 16.5632 14.4854 16.4908 14.8269 16.3496C15.1683 16.2085 15.4786 16.0013 15.7398 15.74C16.0011 15.4788 16.2083 15.1685 16.3494 14.8271C16.4906 14.4856 16.563 14.1197 16.5625 13.7502C16.563 13.3807 16.4906 13.0148 16.3494 12.6733C16.2083 12.3319 16.0011 12.0216 15.7398 11.7604C15.4786 11.4991 15.1683 11.292 14.8269 11.1508C14.4854 11.0096 14.1195 10.9372 13.75 10.9377Z" fill="white"/>
</svg>
