<svg width="15" height="15" viewBox="0 0 20 20" fill="none" xmlns="http://www.w3.org/2000/svg" class="dark:fill-white fill-black">
  <g>
    <path d="M8.38625 0.567277C8.82577 0.30096 9.32985 0.160156 9.84375 0.160156C10.3577 0.160156 10.8617 0.30096 11.3013 0.567277L17.8638 4.54478C18.2773 4.79536 18.6193 5.14833 18.8566 5.5696C19.094 5.99088 19.2187 6.46624 19.2188 6.94978V7.65478C19.2188 7.90342 19.12 8.14187 18.9442 8.31769C18.7683 8.49351 18.5299 8.59228 18.2813 8.59228C18.0326 8.59228 17.7942 8.49351 17.6183 8.31769C17.4425 8.14187 17.3438 7.90342 17.3438 7.65478V6.94978C17.3439 6.7885 17.3025 6.6299 17.2234 6.48932C17.1444 6.34874 17.0304 6.23093 16.8925 6.14728L10.33 2.17103C10.1834 2.08209 10.0152 2.03507 9.84375 2.03507C9.67228 2.03507 9.5041 2.08209 9.3575 2.17103L2.795 6.14728C2.65711 6.23093 2.54313 6.34874 2.46408 6.48932C2.38503 6.6299 2.34359 6.7885 2.34375 6.94978V13.3598C2.34359 13.5211 2.38503 13.6797 2.46408 13.8202C2.54313 13.9608 2.65711 14.0786 2.795 14.1623L7.83 17.2123C7.9353 17.2761 8.027 17.3601 8.09985 17.4594C8.1727 17.5587 8.22528 17.6714 8.25459 17.791C8.2839 17.9106 8.28936 18.0348 8.27067 18.1565C8.25197 18.2782 8.20948 18.3951 8.14563 18.5004C8.08177 18.6057 7.9978 18.6974 7.89851 18.7703C7.79921 18.8431 7.68654 18.8957 7.56693 18.925C7.44732 18.9543 7.3231 18.9598 7.20138 18.9411C7.07965 18.9224 6.9628 18.8799 6.8575 18.816L1.82375 15.766C1.40984 15.5152 1.06766 15.1619 0.830284 14.7401C0.592911 14.3184 0.468386 13.8425 0.468751 13.3585V6.94978C0.468816 6.46624 0.593546 5.99088 0.830898 5.5696C1.06825 5.14833 1.41021 4.79536 1.82375 4.54478L8.38625 0.567277Z" fill="white"/>
    <path fill-rule="evenodd" clip-rule="evenodd" d="M14.53 9.31234L14.5312 9.25984V8.90234C14.5312 8.6537 14.4325 8.41525 14.2567 8.23943C14.0808 8.06362 13.8424 7.96484 13.5938 7.96484C13.3451 7.96484 13.1067 8.06362 12.9308 8.23943C12.755 8.41525 12.6562 8.6537 12.6562 8.90234V9.25984L12.6575 9.31234C12.0695 9.43173 11.5101 9.66346 11.01 9.99484C10.9979 9.982 10.9853 9.96949 10.9725 9.95734L10.7212 9.70359C10.5435 9.53799 10.3085 9.44784 10.0656 9.45212C9.82272 9.45641 9.59099 9.5548 9.41922 9.72657C9.24746 9.89833 9.14907 10.1301 9.14478 10.3729C9.1405 10.6158 9.23065 10.8509 9.39625 11.0286L9.6475 11.2823L9.685 11.3173C9.36 11.8098 9.1225 12.3673 9.00125 12.9661C8.9846 12.9653 8.96792 12.9649 8.95125 12.9648H8.59375C8.34511 12.9648 8.10665 13.0636 7.93084 13.2394C7.75502 13.4152 7.65625 13.6537 7.65625 13.9023C7.65625 14.151 7.75502 14.3894 7.93084 14.5653C8.10665 14.7411 8.34511 14.8398 8.59375 14.8398H8.95125L8.99875 14.8386C9.12 15.4386 9.35625 15.9961 9.6825 16.4886C9.67053 16.4995 9.65886 16.5108 9.6475 16.5223L9.395 16.7748C9.2294 16.9526 9.13925 17.1876 9.14353 17.4305C9.14782 17.6734 9.24621 17.9051 9.41797 18.0769C9.58974 18.2486 9.82147 18.347 10.0643 18.3513C10.3072 18.3556 10.5423 18.2654 10.72 18.0998L10.9738 17.8473C10.9844 17.8368 10.9949 17.8259 11.005 17.8148C11.4987 18.1411 12.0575 18.3773 12.6575 18.4998L12.6562 18.5448V18.9023C12.6562 19.151 12.755 19.3894 12.9308 19.5653C13.1067 19.7411 13.3451 19.8398 13.5938 19.8398C13.8424 19.8398 14.0808 19.7411 14.2567 19.5653C14.4325 19.3894 14.5312 19.151 14.5312 18.9023V18.5448V18.4998C15.1312 18.3786 15.6887 18.1411 16.1812 17.8148L16.2137 17.8473L16.4663 18.1011C16.6431 18.2718 16.88 18.3662 17.1258 18.3639C17.3716 18.3617 17.6067 18.263 17.7805 18.0891C17.9542 17.9152 18.0527 17.68 18.0547 17.4342C18.0567 17.1883 17.9621 16.9516 17.7913 16.7748L17.54 16.5223C17.5286 16.5112 17.517 16.5003 17.505 16.4898C17.8312 15.9961 18.0675 15.4373 18.1887 14.8386H18.5938C18.8424 14.8386 19.0808 14.7398 19.2567 14.564C19.4325 14.3882 19.5312 14.1497 19.5312 13.9011C19.5312 13.6525 19.4325 13.414 19.2567 13.2382C19.0808 13.0624 18.8424 12.9636 18.5938 12.9636H18.2362L18.1862 12.9661C18.0665 12.3776 17.8344 11.8178 17.5025 11.3173L17.54 11.2823L17.7925 11.0298C17.9634 10.8531 18.058 10.6163 18.0559 10.3705C18.0539 10.1247 17.9554 9.88953 17.7817 9.71563C17.608 9.54173 17.3729 9.44302 17.1271 9.44077C16.8813 9.43852 16.6444 9.5329 16.4675 9.70359L16.2137 9.95609L16.1775 9.99359C15.6773 9.66265 15.1179 9.43134 14.53 9.31234ZM13.5938 11.0936C13.2243 11.0931 12.8583 11.1655 12.5169 11.3067C12.1754 11.4478 11.8652 11.655 11.6039 11.9163C11.3426 12.1775 11.1355 12.4878 10.9943 12.8292C10.8532 13.1707 10.7808 13.5366 10.7812 13.9061C10.7808 14.2756 10.8532 14.6415 10.9943 14.983C11.1355 15.3244 11.3426 15.6347 11.6039 15.8959C11.8652 16.1572 12.1754 16.3643 12.5169 16.5055C12.8583 16.6467 13.2243 16.7191 13.5938 16.7186C13.9632 16.7191 14.3292 16.6467 14.6706 16.5055C15.0121 16.3643 15.3223 16.1572 15.5836 15.8959C15.8449 15.6347 16.052 15.3244 16.1932 14.983C16.3343 14.6415 16.4067 14.2756 16.4062 13.9061C16.4067 13.5366 16.3343 13.1707 16.1932 12.8292C16.052 12.4878 15.8449 12.1775 15.5836 11.9163C15.3223 11.655 15.0121 11.4478 14.6706 11.3067C14.3292 11.1655 13.9632 11.0931 13.5938 11.0936Z" fill="white"/>
  </g>
</svg>
