<svg width="32" height="32" viewBox="0 0 32 32" fill="none" xmlns="http://www.w3.org/2000/svg">
<path d="M16 20C18.2091 20 20 18.2091 20 16C20 13.7909 18.2091 12 16 12C13.7909 12 12 13.7909 12 16C12 18.2091 13.7909 20 16 20Z" stroke="#1D1D1F" stroke-width="3.04"/>
<path d="M18.3535 2.86973C17.8634 2.66675 17.2422 2.66675 15.9997 2.66675C14.7571 2.66675 14.1359 2.66675 13.6458 2.86973C12.9924 3.14039 12.4733 3.65952 12.2026 4.31292C12.0791 4.6112 12.0307 4.95808 12.0118 5.46407C11.984 6.20765 11.6027 6.89593 10.9583 7.26799C10.3139 7.64003 9.52712 7.62613 8.86926 7.27843C8.4216 7.04181 8.09702 6.91024 7.77692 6.86811C7.07572 6.77579 6.36658 6.9658 5.80548 7.39635C5.38466 7.71925 5.07403 8.25728 4.45278 9.33332C3.83152 10.4094 3.5209 10.9474 3.45166 11.4733C3.35935 12.1745 3.54936 12.8836 3.97991 13.4447C4.17642 13.7009 4.4526 13.9161 4.88126 14.1854C5.5114 14.5814 5.91686 15.2559 5.91682 16.0001C5.91678 16.7442 5.51134 17.4186 4.88124 17.8145C4.45254 18.0839 4.17631 18.2993 3.97978 18.5554C3.54923 19.1165 3.35922 19.8255 3.45154 20.5267C3.52076 21.0526 3.83139 21.5907 4.45264 22.6667C5.07391 23.7427 5.38454 24.2809 5.80535 24.6037C6.36644 25.0342 7.07559 25.2242 7.77679 25.1319C8.09686 25.0898 8.42143 24.9582 8.86906 24.7217C9.52696 24.3739 10.3137 24.3601 10.9582 24.7321C11.6027 25.1042 11.984 25.7925 12.0118 26.5362C12.0308 27.0421 12.0791 27.389 12.2026 27.6873C12.4733 28.3406 12.9924 28.8598 13.6458 29.1305C14.1359 29.3334 14.7571 29.3334 15.9997 29.3334C17.2422 29.3334 17.8634 29.3334 18.3535 29.1305C19.0069 28.8598 19.5261 28.3406 19.7966 27.6873C19.9202 27.389 19.9686 27.0421 19.9875 26.5361C20.0153 25.7925 20.3966 25.1042 21.041 24.7321C21.6854 24.3599 22.4722 24.3739 23.1302 24.7217C23.5778 24.9582 23.9023 25.0897 24.2223 25.1318C24.9235 25.2242 25.6327 25.0342 26.1938 24.6037C26.6146 24.2807 26.9253 23.7427 27.5465 22.6666C28.1678 21.5906 28.4785 21.0526 28.5477 20.5267C28.6399 19.8255 28.4499 19.1163 28.0194 18.5553C27.8229 18.2991 27.5466 18.0838 27.1179 17.8145C26.4879 17.4186 26.0825 16.7441 26.0825 15.9999C26.0825 15.2558 26.4879 14.5815 27.1179 14.1857C27.5467 13.9162 27.823 13.701 28.0195 13.4447C28.4501 12.8837 28.6401 12.1746 28.5478 11.4734C28.4786 10.9475 28.1679 10.4095 27.5466 9.33341C26.9254 8.25737 26.6147 7.71935 26.1939 7.39644C25.6329 6.96589 24.9237 6.77588 24.2225 6.8682C23.9025 6.91033 23.5779 7.04189 23.1302 7.27848C22.4723 7.6262 21.6855 7.64011 21.0411 7.26803C20.3966 6.89596 20.0153 6.20763 19.9875 5.464C19.9686 4.95805 19.9202 4.61119 19.7966 4.31292C19.5261 3.65952 19.0069 3.14039 18.3535 2.86973Z" stroke="#1D1D1F" stroke-width="3.04"/>
</svg>
