<svg width="32" height="32" viewBox="0 0 32 32" fill="none" xmlns="http://www.w3.org/2000/svg">
<path d="M17.5858 2H9C6.79086 2 5 3.79086 5 6V26C5 28.2091 6.79086 30 9 30H23C25.2091 30 27 28.2091 27 26V11.4142C27 11.149 26.8946 10.8946 26.7071 10.7071L18.2929 2.29289C18.1054 2.10536 17.851 2 17.5858 2Z" fill="#DFF1FD"/>
<path d="M13.0776 22.0732C13.0776 22.5947 13.0088 23.0415 12.8711 23.4136C12.7363 23.7827 12.5415 24.0845 12.2866 24.3188C12.0317 24.5532 11.7212 24.7261 11.355 24.8374C10.9917 24.9458 10.5581 25 10.0542 25H8.69629C8.59961 25 8.51758 24.9722 8.4502 24.9165C8.38574 24.8579 8.35352 24.7642 8.35352 24.6353V19.6782C8.35352 19.5493 8.38574 19.457 8.4502 19.4014C8.51758 19.3428 8.59961 19.3135 8.69629 19.3135H10.1553C10.6621 19.3135 11.0913 19.3735 11.4429 19.4937C11.7974 19.6108 12.0947 19.7866 12.335 20.021C12.5781 20.2524 12.7627 20.5396 12.8887 20.8823C13.0146 21.2251 13.0776 21.6221 13.0776 22.0732ZM11.8823 22.1128C11.8823 21.8433 11.8501 21.5928 11.7856 21.3613C11.7241 21.1299 11.623 20.9292 11.4824 20.7593C11.3447 20.5894 11.166 20.4575 10.9463 20.3638C10.7295 20.2671 10.4438 20.2188 10.0894 20.2188H9.50488V24.0859H10.1069C10.4233 24.0859 10.6899 24.0449 10.9067 23.9629C11.1235 23.8809 11.3037 23.7578 11.4473 23.5938C11.5938 23.4268 11.7021 23.2202 11.7725 22.9741C11.8457 22.728 11.8823 22.4409 11.8823 22.1128ZM19.1465 22.0908C19.1465 22.5625 19.0879 22.9844 18.9707 23.3564C18.8535 23.7285 18.6792 24.0449 18.4478 24.3057C18.2163 24.5635 17.9292 24.7612 17.5864 24.8989C17.2466 25.0337 16.8525 25.1011 16.4043 25.1011C15.9619 25.1011 15.5752 25.0439 15.2441 24.9297C14.916 24.8125 14.6421 24.6353 14.4224 24.3979C14.2026 24.1606 14.0371 23.8589 13.9258 23.4927C13.8174 23.1265 13.7632 22.6929 13.7632 22.1919C13.7632 21.7319 13.8218 21.3188 13.939 20.9526C14.0562 20.5835 14.2305 20.27 14.4619 20.0122C14.6934 19.7544 14.979 19.5566 15.3188 19.4189C15.6616 19.2812 16.0586 19.2124 16.5098 19.2124C16.9404 19.2124 17.3198 19.2695 17.6479 19.3838C17.979 19.498 18.2544 19.6738 18.4741 19.9111C18.6968 20.1484 18.8638 20.4487 18.9751 20.812C19.0894 21.1724 19.1465 21.5986 19.1465 22.0908ZM17.9336 22.1523C17.9336 21.8535 17.9102 21.5825 17.8633 21.3394C17.8164 21.0933 17.7358 20.8838 17.6216 20.7109C17.5103 20.5352 17.3608 20.4004 17.1733 20.3066C16.9858 20.21 16.7515 20.1616 16.4702 20.1616C16.186 20.1616 15.9487 20.2158 15.7583 20.3242C15.5679 20.4297 15.4141 20.5718 15.2969 20.7505C15.1797 20.9292 15.0962 21.1387 15.0464 21.3789C14.9995 21.6162 14.9761 21.8682 14.9761 22.1348C14.9761 22.4453 14.9995 22.7251 15.0464 22.9741C15.0933 23.2202 15.1724 23.4312 15.2837 23.6069C15.395 23.7827 15.5444 23.9175 15.7319 24.0112C15.9194 24.1021 16.1553 24.1475 16.4395 24.1475C16.7236 24.1475 16.9609 24.0947 17.1514 23.9893C17.3418 23.8838 17.4956 23.7402 17.6128 23.5586C17.73 23.377 17.812 23.166 17.8589 22.9258C17.9087 22.6826 17.9336 22.4248 17.9336 22.1523ZM24.0552 24.1387C24.0552 24.2119 24.0522 24.2749 24.0464 24.3276C24.0435 24.3774 24.0376 24.4214 24.0288 24.4595C24.02 24.4946 24.0083 24.5254 23.9937 24.5518C23.979 24.5781 23.9556 24.6089 23.9233 24.644C23.8911 24.6763 23.8281 24.7188 23.7344 24.7715C23.6436 24.8242 23.5308 24.8755 23.396 24.9253C23.2642 24.9722 23.1118 25.0117 22.939 25.0439C22.769 25.0762 22.5845 25.0923 22.3853 25.0923C21.9956 25.0923 21.644 25.0322 21.3306 24.9121C21.0171 24.792 20.7505 24.6133 20.5308 24.376C20.311 24.1357 20.1426 23.8369 20.0254 23.4795C19.9082 23.1221 19.8496 22.7061 19.8496 22.2314C19.8496 21.748 19.9141 21.3188 20.043 20.9438C20.1719 20.5688 20.3521 20.2539 20.5835 19.999C20.8149 19.7441 21.0918 19.5508 21.4141 19.4189C21.7393 19.2871 22.0967 19.2212 22.4863 19.2212C22.6445 19.2212 22.7969 19.2344 22.9434 19.2607C23.0898 19.2871 23.2246 19.3223 23.3477 19.3662C23.4736 19.4072 23.5864 19.4556 23.686 19.5112C23.7856 19.5669 23.8545 19.6152 23.8926 19.6562C23.9336 19.6943 23.9614 19.7266 23.9761 19.7529C23.9907 19.7793 24.0024 19.813 24.0112 19.854C24.02 19.895 24.0259 19.9434 24.0288 19.999C24.0347 20.0547 24.0376 20.1235 24.0376 20.2056C24.0376 20.2935 24.0347 20.3682 24.0288 20.4297C24.0229 20.4912 24.0127 20.541 23.998 20.5791C23.9834 20.6172 23.9658 20.645 23.9453 20.6626C23.9248 20.6802 23.9014 20.689 23.875 20.689C23.8311 20.689 23.7754 20.6641 23.708 20.6143C23.6406 20.5615 23.5527 20.5044 23.4443 20.4429C23.3389 20.3784 23.2114 20.3213 23.062 20.2715C22.9155 20.2188 22.7397 20.1924 22.5347 20.1924C22.3091 20.1924 22.1069 20.2393 21.9282 20.333C21.7524 20.4238 21.6016 20.5557 21.4756 20.7285C21.3525 20.8984 21.2588 21.105 21.1943 21.3481C21.1299 21.5913 21.0977 21.8652 21.0977 22.1699C21.0977 22.5039 21.1313 22.7939 21.1987 23.04C21.269 23.2832 21.3672 23.4839 21.4932 23.6421C21.6221 23.8003 21.7759 23.9189 21.9546 23.998C22.1362 24.0742 22.3398 24.1123 22.5654 24.1123C22.7705 24.1123 22.9478 24.0889 23.0972 24.042C23.2466 23.9922 23.374 23.938 23.4795 23.8794C23.5879 23.8208 23.6758 23.7681 23.7432 23.7212C23.8135 23.6743 23.8677 23.6509 23.9058 23.6509C23.9351 23.6509 23.9585 23.6567 23.9761 23.6685C23.9937 23.6802 24.0083 23.7036 24.02 23.7388C24.0317 23.7739 24.0405 23.8237 24.0464 23.8882C24.0522 23.9497 24.0552 24.0332 24.0552 24.1387Z" fill="#0172BB"/>
<path d="M22 11H27L18 2V7C18 9.20914 19.7909 11 22 11Z" fill="#A2CFEC"/>
</svg>
