<svg width="32" height="32" viewBox="0 0 32 32" fill="none" xmlns="http://www.w3.org/2000/svg">
<path d="M17.5858 2H9C6.79086 2 5 3.79086 5 6V26C5 28.2091 6.79086 30 9 30H23C25.2091 30 27 28.2091 27 26V11.4142C27 11.149 26.8946 10.8946 26.7071 10.7071L18.2929 2.29289C18.1054 2.10536 17.851 2 17.5858 2Z" fill="#DFF1FD"/>
<path d="M11.1992 22.3984C11.1992 22.862 11.138 23.2591 11.0156 23.5898C10.8958 23.918 10.7227 24.1862 10.4961 24.3945C10.2695 24.6029 9.99349 24.7565 9.66797 24.8555C9.34505 24.9518 8.95964 25 8.51172 25H7.30469C7.21875 25 7.14583 24.9753 7.08594 24.9258C7.02865 24.8737 7 24.7904 7 24.6758V20.2695C7 20.1549 7.02865 20.0729 7.08594 20.0234C7.14583 19.9714 7.21875 19.9453 7.30469 19.9453H8.60156C9.05208 19.9453 9.43359 19.9987 9.74609 20.1055C10.0612 20.2096 10.3255 20.3659 10.5391 20.5742C10.7552 20.7799 10.9193 21.0352 11.0312 21.3398C11.1432 21.6445 11.1992 21.9974 11.1992 22.3984ZM10.1367 22.4336C10.1367 22.194 10.1081 21.9714 10.0508 21.7656C9.99609 21.5599 9.90625 21.3815 9.78125 21.2305C9.65885 21.0794 9.5 20.9622 9.30469 20.8789C9.11198 20.793 8.85807 20.75 8.54297 20.75H8.02344V24.1875H8.55859C8.83984 24.1875 9.07682 24.151 9.26953 24.0781C9.46224 24.0052 9.6224 23.8958 9.75 23.75C9.88021 23.6016 9.97656 23.418 10.0391 23.1992C10.1042 22.9805 10.1367 22.7253 10.1367 22.4336ZM16.5938 22.4141C16.5938 22.8333 16.5417 23.2083 16.4375 23.5391C16.3333 23.8698 16.1784 24.151 15.9727 24.3828C15.7669 24.612 15.5117 24.7878 15.207 24.9102C14.9049 25.0299 14.5547 25.0898 14.1562 25.0898C13.763 25.0898 13.4193 25.0391 13.125 24.9375C12.8333 24.8333 12.5898 24.6758 12.3945 24.4648C12.1992 24.2539 12.0521 23.9857 11.9531 23.6602C11.8568 23.3346 11.8086 22.9492 11.8086 22.5039C11.8086 22.0951 11.8607 21.7279 11.9648 21.4023C12.069 21.0742 12.224 20.7956 12.4297 20.5664C12.6354 20.3372 12.8893 20.1615 13.1914 20.0391C13.4961 19.9167 13.849 19.8555 14.25 19.8555C14.6328 19.8555 14.9701 19.9062 15.2617 20.0078C15.556 20.1094 15.8008 20.2656 15.9961 20.4766C16.194 20.6875 16.3424 20.9544 16.4414 21.2773C16.543 21.5977 16.5938 21.9766 16.5938 22.4141ZM15.5156 22.4688C15.5156 22.2031 15.4948 21.9622 15.4531 21.7461C15.4115 21.5273 15.3398 21.3411 15.2383 21.1875C15.1393 21.0312 15.0065 20.9115 14.8398 20.8281C14.6732 20.7422 14.4648 20.6992 14.2148 20.6992C13.9622 20.6992 13.7513 20.7474 13.582 20.8438C13.4128 20.9375 13.276 21.0638 13.1719 21.2227C13.0677 21.3815 12.9935 21.5677 12.9492 21.7812C12.9076 21.9922 12.8867 22.2161 12.8867 22.4531C12.8867 22.7292 12.9076 22.9779 12.9492 23.1992C12.9909 23.418 13.0612 23.6055 13.1602 23.7617C13.2591 23.918 13.3919 24.0378 13.5586 24.1211C13.7253 24.2018 13.9349 24.2422 14.1875 24.2422C14.4401 24.2422 14.651 24.1953 14.8203 24.1016C14.9896 24.0078 15.1263 23.8802 15.2305 23.7188C15.3346 23.5573 15.4076 23.3698 15.4492 23.1562C15.4935 22.9401 15.5156 22.7109 15.5156 22.4688ZM20.957 24.2344C20.957 24.2995 20.9544 24.3555 20.9492 24.4023C20.9466 24.4466 20.9414 24.4857 20.9336 24.5195C20.9258 24.5508 20.9154 24.5781 20.9023 24.6016C20.8893 24.625 20.8685 24.6523 20.8398 24.6836C20.8112 24.7122 20.7552 24.75 20.6719 24.7969C20.5911 24.8438 20.4909 24.8893 20.3711 24.9336C20.2539 24.9753 20.1185 25.0104 19.9648 25.0391C19.8138 25.0677 19.6497 25.082 19.4727 25.082C19.1263 25.082 18.8138 25.0286 18.5352 24.9219C18.2565 24.8151 18.0195 24.6562 17.8242 24.4453C17.6289 24.2318 17.4792 23.9661 17.375 23.6484C17.2708 23.3307 17.2188 22.9609 17.2188 22.5391C17.2188 22.1094 17.276 21.7279 17.3906 21.3945C17.5052 21.0612 17.6654 20.7812 17.8711 20.5547C18.0768 20.3281 18.3229 20.1562 18.6094 20.0391C18.8984 19.9219 19.2161 19.8633 19.5625 19.8633C19.7031 19.8633 19.8385 19.875 19.9688 19.8984C20.099 19.9219 20.2188 19.9531 20.3281 19.9922C20.4401 20.0286 20.5404 20.0716 20.6289 20.1211C20.7174 20.1706 20.7786 20.2135 20.8125 20.25C20.849 20.2839 20.8737 20.3125 20.8867 20.3359C20.8997 20.3594 20.9102 20.3893 20.918 20.4258C20.9258 20.4622 20.931 20.5052 20.9336 20.5547C20.9388 20.6042 20.9414 20.6654 20.9414 20.7383C20.9414 20.8164 20.9388 20.8828 20.9336 20.9375C20.9284 20.9922 20.9193 21.0365 20.9062 21.0703C20.8932 21.1042 20.8776 21.1289 20.8594 21.1445C20.8411 21.1602 20.8203 21.168 20.7969 21.168C20.7578 21.168 20.7083 21.1458 20.6484 21.1016C20.5885 21.0547 20.5104 21.0039 20.4141 20.9492C20.3203 20.8919 20.207 20.8411 20.0742 20.7969C19.944 20.75 19.7878 20.7266 19.6055 20.7266C19.4049 20.7266 19.2253 20.7682 19.0664 20.8516C18.9102 20.9323 18.776 21.0495 18.6641 21.2031C18.5547 21.3542 18.4714 21.5378 18.4141 21.7539C18.3568 21.9701 18.3281 22.2135 18.3281 22.4844C18.3281 22.7812 18.3581 23.0391 18.418 23.2578C18.4805 23.474 18.5677 23.6523 18.6797 23.793C18.7943 23.9336 18.931 24.0391 19.0898 24.1094C19.2513 24.1771 19.4323 24.2109 19.6328 24.2109C19.8151 24.2109 19.9727 24.1901 20.1055 24.1484C20.2383 24.1042 20.3516 24.056 20.4453 24.0039C20.5417 23.9518 20.6198 23.9049 20.6797 23.8633C20.7422 23.8216 20.7904 23.8008 20.8242 23.8008C20.8503 23.8008 20.8711 23.806 20.8867 23.8164C20.9023 23.8268 20.9154 23.8477 20.9258 23.8789C20.9362 23.9102 20.944 23.9544 20.9492 24.0117C20.9544 24.0664 20.957 24.1406 20.957 24.2344ZM25.2969 24.6133C25.3438 24.7044 25.3737 24.7773 25.3867 24.832C25.4023 24.8867 25.3945 24.9284 25.3633 24.957C25.332 24.9857 25.2747 25.0039 25.1914 25.0117C25.1107 25.0195 24.9974 25.0234 24.8516 25.0234C24.7292 25.0234 24.6328 25.0208 24.5625 25.0156C24.4922 25.0104 24.4362 25.0026 24.3945 24.9922C24.3555 24.9792 24.3268 24.9622 24.3086 24.9414C24.2904 24.9206 24.2747 24.8945 24.2617 24.8633L23.3125 23.0391L22.3672 24.8633C22.3516 24.8945 22.3346 24.9206 22.3164 24.9414C22.2982 24.9622 22.2682 24.9792 22.2266 24.9922C22.1875 25.0026 22.1315 25.0104 22.0586 25.0156C21.9883 25.0208 21.8945 25.0234 21.7773 25.0234C21.6419 25.0234 21.5365 25.0195 21.4609 25.0117C21.388 25.0039 21.3385 24.9857 21.3125 24.957C21.2865 24.9284 21.2812 24.8867 21.2969 24.832C21.3125 24.7773 21.3451 24.7044 21.3945 24.6133L22.6055 22.4062L21.4805 20.332C21.4336 20.2383 21.401 20.1641 21.3828 20.1094C21.3672 20.0521 21.3737 20.0104 21.4023 19.9844C21.4336 19.9557 21.4896 19.9388 21.5703 19.9336C21.651 19.9258 21.7656 19.9219 21.9141 19.9219C22.0365 19.9219 22.1328 19.9245 22.2031 19.9297C22.276 19.9349 22.3333 19.944 22.375 19.957C22.4167 19.9674 22.4453 19.9831 22.4609 20.0039C22.4792 20.0247 22.4961 20.0508 22.5117 20.082L23.3984 21.7539L24.2617 20.082C24.2773 20.0508 24.293 20.0247 24.3086 20.0039C24.3268 19.9831 24.3542 19.9674 24.3906 19.957C24.4297 19.944 24.4818 19.9349 24.5469 19.9297C24.6146 19.9245 24.707 19.9219 24.8242 19.9219C24.9544 19.9219 25.0573 19.9258 25.1328 19.9336C25.2083 19.9388 25.2604 19.9557 25.2891 19.9844C25.3177 20.013 25.3242 20.0547 25.3086 20.1094C25.2956 20.1641 25.2669 20.2383 25.2227 20.332L24.0977 22.3945L25.2969 24.6133Z" fill="#0172BB"/>
<path d="M22 11H27L18 2V7C18 9.20914 19.7909 11 22 11Z" fill="#A2CFEC"/>
</svg>
