<svg width="32" height="32" viewBox="0 0 32 32" fill="none" xmlns="http://www.w3.org/2000/svg">
<path d="M17.5858 2H9C6.79086 2 5 3.79086 5 6V26C5 28.2091 6.79086 30 9 30H23C25.2091 30 27 28.2091 27 26V11.4142C27 11.149 26.8946 10.8946 26.7071 10.7071L18.2929 2.29289C18.1054 2.10536 17.851 2 17.5858 2Z" fill="#E2F5FA"/>
<path d="M9.48291 23.418C9.48291 23.6758 9.45801 23.9087 9.4082 24.1167C9.36133 24.3218 9.2793 24.4976 9.16211 24.644C9.04785 24.7876 8.89697 24.8975 8.70947 24.9736C8.52197 25.0498 8.29053 25.0879 8.01514 25.0879C7.92725 25.0879 7.83936 25.0806 7.75146 25.0659C7.6665 25.0542 7.5874 25.0381 7.51416 25.0176C7.44385 24.9971 7.38232 24.9751 7.32959 24.9517C7.27686 24.9282 7.2417 24.9077 7.22412 24.8901C7.20654 24.8696 7.19189 24.8491 7.18018 24.8286C7.16846 24.8081 7.1582 24.7817 7.14941 24.7495C7.14062 24.7144 7.13477 24.6719 7.13184 24.6221C7.12891 24.5723 7.12744 24.5093 7.12744 24.4331C7.12744 24.3335 7.12891 24.25 7.13184 24.1826C7.1377 24.1123 7.14502 24.0581 7.15381 24.02C7.16553 23.979 7.18018 23.9512 7.19775 23.9365C7.21826 23.9189 7.24316 23.9102 7.27246 23.9102C7.29883 23.9102 7.32959 23.9204 7.36475 23.9409C7.3999 23.9585 7.43945 23.9775 7.4834 23.998C7.52734 24.0186 7.57861 24.0391 7.63721 24.0596C7.6958 24.0771 7.76465 24.0859 7.84375 24.0859C7.92285 24.0859 7.9917 24.0757 8.05029 24.0552C8.11182 24.0317 8.16162 23.9937 8.19971 23.9409C8.24072 23.8853 8.27148 23.812 8.29199 23.7212C8.3125 23.6304 8.32275 23.5132 8.32275 23.3696V19.4629C8.32275 19.4336 8.33154 19.4087 8.34912 19.3882C8.36963 19.3647 8.40039 19.3457 8.44141 19.3311C8.48535 19.3164 8.54541 19.3062 8.62158 19.3003C8.69775 19.2915 8.7915 19.2871 8.90283 19.2871C9.01416 19.2871 9.10645 19.2915 9.17969 19.3003C9.25293 19.3062 9.31152 19.3164 9.35547 19.3311C9.40234 19.3457 9.43457 19.3647 9.45215 19.3882C9.47266 19.4087 9.48291 19.4336 9.48291 19.4629V23.418ZM14.6069 21.0405C14.6069 21.3599 14.5571 21.6426 14.4575 21.8887C14.3579 22.1348 14.2129 22.3428 14.0225 22.5127C13.832 22.6797 13.5977 22.8071 13.3193 22.895C13.0439 22.9829 12.7188 23.0269 12.3438 23.0269H11.8691V24.8418C11.8691 24.8711 11.8589 24.8975 11.8384 24.9209C11.8208 24.9443 11.79 24.9634 11.7461 24.978C11.7021 24.9927 11.6436 25.0044 11.5703 25.0132C11.4971 25.022 11.4033 25.0264 11.2891 25.0264C11.1777 25.0264 11.084 25.022 11.0078 25.0132C10.9346 25.0044 10.876 24.9927 10.832 24.978C10.7881 24.9634 10.7573 24.9443 10.7397 24.9209C10.7222 24.8975 10.7134 24.8711 10.7134 24.8418V19.7266C10.7134 19.5889 10.7485 19.4863 10.8188 19.4189C10.8921 19.3486 10.9873 19.3135 11.1045 19.3135H12.4448C12.5796 19.3135 12.707 19.3193 12.8271 19.3311C12.9502 19.3398 13.0967 19.3618 13.2666 19.397C13.4365 19.4292 13.6079 19.4907 13.7808 19.5815C13.9565 19.6724 14.106 19.7881 14.229 19.9287C14.3521 20.0664 14.4458 20.229 14.5103 20.4165C14.5747 20.6011 14.6069 20.8091 14.6069 21.0405ZM13.3984 21.124C13.3984 20.9248 13.3633 20.7607 13.293 20.6318C13.2227 20.5029 13.1362 20.4077 13.0337 20.3462C12.9312 20.2847 12.8228 20.2466 12.7085 20.2319C12.5972 20.2144 12.4814 20.2056 12.3613 20.2056H11.8691V22.1348H12.3877C12.5723 22.1348 12.7261 22.1099 12.8491 22.0601C12.9751 22.0103 13.0776 21.9414 13.1567 21.8535C13.2358 21.7627 13.2959 21.6558 13.3369 21.5327C13.3779 21.4067 13.3984 21.2705 13.3984 21.124ZM18.874 24.5474C18.874 24.6323 18.8696 24.7041 18.8608 24.7627C18.855 24.8184 18.8447 24.8638 18.8301 24.8989C18.8154 24.9341 18.7964 24.9604 18.7729 24.978C18.7524 24.9927 18.729 25 18.7026 25H15.8462C15.7495 25 15.6675 24.9722 15.6001 24.9165C15.5356 24.8579 15.5034 24.7642 15.5034 24.6353V19.6782C15.5034 19.5493 15.5356 19.457 15.6001 19.4014C15.6675 19.3428 15.7495 19.3135 15.8462 19.3135H18.6851C18.7114 19.3135 18.7349 19.3208 18.7554 19.3354C18.7759 19.3501 18.7935 19.3765 18.8081 19.4146C18.8228 19.4497 18.833 19.4966 18.8389 19.5552C18.8477 19.6108 18.8521 19.6826 18.8521 19.7705C18.8521 19.8525 18.8477 19.9229 18.8389 19.9814C18.833 20.0371 18.8228 20.0825 18.8081 20.1177C18.7935 20.1528 18.7759 20.1792 18.7554 20.1968C18.7349 20.2114 18.7114 20.2188 18.6851 20.2188H16.6548V21.6074H18.373C18.3994 21.6074 18.4229 21.6162 18.4434 21.6338C18.4668 21.6484 18.4858 21.6733 18.5005 21.7085C18.5151 21.7407 18.5254 21.7861 18.5312 21.8447C18.54 21.9004 18.5444 21.9692 18.5444 22.0513C18.5444 22.1362 18.54 22.2065 18.5312 22.2622C18.5254 22.3179 18.5151 22.3633 18.5005 22.3984C18.4858 22.4307 18.4668 22.4541 18.4434 22.4688C18.4229 22.4834 18.3994 22.4907 18.373 22.4907H16.6548V24.0947H18.7026C18.729 24.0947 18.7524 24.1035 18.7729 24.1211C18.7964 24.1357 18.8154 24.1606 18.8301 24.1958C18.8447 24.231 18.855 24.2778 18.8608 24.3364C18.8696 24.3921 18.874 24.4624 18.874 24.5474ZM24.3276 20.1968C24.3276 20.2817 24.3232 20.355 24.3145 20.4165C24.3086 20.478 24.2983 20.5278 24.2837 20.5659C24.272 20.6011 24.2559 20.626 24.2354 20.6406C24.2178 20.6553 24.1958 20.6626 24.1694 20.6626C24.1313 20.6626 24.0698 20.6362 23.9849 20.5835C23.8999 20.5308 23.7871 20.4736 23.6465 20.4121C23.5059 20.3506 23.3374 20.2935 23.1411 20.2407C22.9478 20.188 22.7222 20.1616 22.4644 20.1616C22.189 20.1616 21.9399 20.21 21.7173 20.3066C21.4946 20.4004 21.3042 20.5352 21.146 20.7109C20.9878 20.8838 20.8662 21.0933 20.7812 21.3394C20.6963 21.5825 20.6538 21.8521 20.6538 22.1479C20.6538 22.4731 20.6963 22.7603 20.7812 23.0093C20.8691 23.2554 20.9907 23.4619 21.146 23.6289C21.3013 23.7959 21.4873 23.9219 21.7041 24.0068C21.9238 24.0918 22.1655 24.1343 22.4292 24.1343C22.5581 24.1343 22.6855 24.1196 22.8115 24.0903C22.9375 24.061 23.0547 24.0171 23.1631 23.9585V22.6401H22.0864C22.0337 22.6401 21.9927 22.6079 21.9634 22.5435C21.9341 22.4761 21.9194 22.3633 21.9194 22.2051C21.9194 22.123 21.9224 22.0542 21.9282 21.9985C21.937 21.9429 21.9487 21.8989 21.9634 21.8667C21.978 21.8315 21.9956 21.8066 22.0161 21.792C22.0366 21.7744 22.0601 21.7656 22.0864 21.7656H24.0068C24.0537 21.7656 24.0947 21.7744 24.1299 21.792C24.168 21.8066 24.2002 21.8301 24.2266 21.8623C24.2559 21.8945 24.2778 21.9341 24.2925 21.981C24.3071 22.0249 24.3145 22.0762 24.3145 22.1348V24.3979C24.3145 24.4858 24.2983 24.5635 24.2661 24.6309C24.2368 24.6953 24.1738 24.7466 24.0771 24.7847C23.9834 24.8228 23.8662 24.8623 23.7256 24.9033C23.585 24.9443 23.4385 24.9795 23.2861 25.0088C23.1367 25.0381 22.9844 25.0601 22.8291 25.0747C22.6768 25.0894 22.5229 25.0967 22.3677 25.0967C21.9136 25.0967 21.5063 25.0322 21.146 24.9033C20.7886 24.7715 20.4854 24.5825 20.2363 24.3364C19.9873 24.0874 19.7969 23.7856 19.665 23.4312C19.5332 23.0737 19.4673 22.6694 19.4673 22.2183C19.4673 21.7524 19.5376 21.335 19.6782 20.9658C19.8188 20.5938 20.0181 20.2788 20.2759 20.021C20.5337 19.7603 20.8442 19.561 21.2075 19.4233C21.5737 19.2856 21.981 19.2168 22.4292 19.2168C22.6753 19.2168 22.8994 19.2344 23.1016 19.2695C23.3037 19.3018 23.4795 19.3428 23.6289 19.3926C23.7812 19.4395 23.9072 19.4907 24.0068 19.5464C24.1064 19.6021 24.1753 19.6504 24.2134 19.6914C24.2544 19.7324 24.2837 19.791 24.3013 19.8672C24.3188 19.9404 24.3276 20.0503 24.3276 20.1968Z" fill="#3393A9"/>
<path d="M22 11H27L18 2V7C18 9.20914 19.7909 11 22 11Z" fill="#A9DDE9"/>
</svg>
