<svg width="32" height="32" viewBox="0 0 32 32" fill="none" xmlns="http://www.w3.org/2000/svg">
<path d="M17.5858 2H9C6.79086 2 5 3.79086 5 6V26C5 28.2091 6.79086 30 9 30H23C25.2091 30 27 28.2091 27 26V11.4142C27 11.149 26.8946 10.8946 26.7071 10.7071L18.2929 2.29289C18.1054 2.10536 17.851 2 17.5858 2Z" fill="#E2F5FA"/>
<path d="M11.6143 23.418C11.6143 23.6758 11.5894 23.9087 11.5396 24.1167C11.4927 24.3218 11.4106 24.4976 11.2935 24.644C11.1792 24.7876 11.0283 24.8975 10.8408 24.9736C10.6533 25.0498 10.4219 25.0879 10.1465 25.0879C10.0586 25.0879 9.9707 25.0806 9.88281 25.0659C9.79785 25.0542 9.71875 25.0381 9.64551 25.0176C9.5752 24.9971 9.51367 24.9751 9.46094 24.9517C9.4082 24.9282 9.37305 24.9077 9.35547 24.8901C9.33789 24.8696 9.32324 24.8491 9.31152 24.8286C9.2998 24.8081 9.28955 24.7817 9.28076 24.7495C9.27197 24.7144 9.26611 24.6719 9.26318 24.6221C9.26025 24.5723 9.25879 24.5093 9.25879 24.4331C9.25879 24.3335 9.26025 24.25 9.26318 24.1826C9.26904 24.1123 9.27637 24.0581 9.28516 24.02C9.29688 23.979 9.31152 23.9512 9.3291 23.9365C9.34961 23.9189 9.37451 23.9102 9.40381 23.9102C9.43018 23.9102 9.46094 23.9204 9.49609 23.9409C9.53125 23.9585 9.5708 23.9775 9.61475 23.998C9.65869 24.0186 9.70996 24.0391 9.76855 24.0596C9.82715 24.0771 9.896 24.0859 9.9751 24.0859C10.0542 24.0859 10.123 24.0757 10.1816 24.0552C10.2432 24.0317 10.293 23.9937 10.3311 23.9409C10.3721 23.8853 10.4028 23.812 10.4233 23.7212C10.4438 23.6304 10.4541 23.5132 10.4541 23.3696V19.4629C10.4541 19.4336 10.4629 19.4087 10.4805 19.3882C10.501 19.3647 10.5317 19.3457 10.5728 19.3311C10.6167 19.3164 10.6768 19.3062 10.7529 19.3003C10.8291 19.2915 10.9229 19.2871 11.0342 19.2871C11.1455 19.2871 11.2378 19.2915 11.311 19.3003C11.3843 19.3062 11.4429 19.3164 11.4868 19.3311C11.5337 19.3457 11.5659 19.3647 11.5835 19.3882C11.604 19.4087 11.6143 19.4336 11.6143 19.4629V23.418ZM16.7383 21.0405C16.7383 21.3599 16.6885 21.6426 16.5889 21.8887C16.4893 22.1348 16.3442 22.3428 16.1538 22.5127C15.9634 22.6797 15.729 22.8071 15.4507 22.895C15.1753 22.9829 14.8501 23.0269 14.4751 23.0269H14.0005V24.8418C14.0005 24.8711 13.9902 24.8975 13.9697 24.9209C13.9521 24.9443 13.9214 24.9634 13.8774 24.978C13.8335 24.9927 13.7749 25.0044 13.7017 25.0132C13.6284 25.022 13.5347 25.0264 13.4204 25.0264C13.3091 25.0264 13.2153 25.022 13.1392 25.0132C13.0659 25.0044 13.0073 24.9927 12.9634 24.978C12.9194 24.9634 12.8887 24.9443 12.8711 24.9209C12.8535 24.8975 12.8447 24.8711 12.8447 24.8418V19.7266C12.8447 19.5889 12.8799 19.4863 12.9502 19.4189C13.0234 19.3486 13.1187 19.3135 13.2358 19.3135H14.5762C14.7109 19.3135 14.8384 19.3193 14.9585 19.3311C15.0815 19.3398 15.228 19.3618 15.3979 19.397C15.5679 19.4292 15.7393 19.4907 15.9121 19.5815C16.0879 19.6724 16.2373 19.7881 16.3604 19.9287C16.4834 20.0664 16.5771 20.229 16.6416 20.4165C16.7061 20.6011 16.7383 20.8091 16.7383 21.0405ZM15.5298 21.124C15.5298 20.9248 15.4946 20.7607 15.4243 20.6318C15.354 20.5029 15.2676 20.4077 15.165 20.3462C15.0625 20.2847 14.9541 20.2466 14.8398 20.2319C14.7285 20.2144 14.6128 20.2056 14.4927 20.2056H14.0005V22.1348H14.519C14.7036 22.1348 14.8574 22.1099 14.9805 22.0601C15.1064 22.0103 15.209 21.9414 15.2881 21.8535C15.3672 21.7627 15.4272 21.6558 15.4683 21.5327C15.5093 21.4067 15.5298 21.2705 15.5298 21.124ZM22.1963 20.1968C22.1963 20.2817 22.1919 20.355 22.1831 20.4165C22.1772 20.478 22.167 20.5278 22.1523 20.5659C22.1406 20.6011 22.1245 20.626 22.104 20.6406C22.0864 20.6553 22.0645 20.6626 22.0381 20.6626C22 20.6626 21.9385 20.6362 21.8535 20.5835C21.7686 20.5308 21.6558 20.4736 21.5151 20.4121C21.3745 20.3506 21.2061 20.2935 21.0098 20.2407C20.8164 20.188 20.5908 20.1616 20.333 20.1616C20.0576 20.1616 19.8086 20.21 19.5859 20.3066C19.3633 20.4004 19.1729 20.5352 19.0146 20.7109C18.8564 20.8838 18.7349 21.0933 18.6499 21.3394C18.5649 21.5825 18.5225 21.8521 18.5225 22.1479C18.5225 22.4731 18.5649 22.7603 18.6499 23.0093C18.7378 23.2554 18.8594 23.4619 19.0146 23.6289C19.1699 23.7959 19.356 23.9219 19.5728 24.0068C19.7925 24.0918 20.0342 24.1343 20.2979 24.1343C20.4268 24.1343 20.5542 24.1196 20.6802 24.0903C20.8062 24.061 20.9233 24.0171 21.0317 23.9585V22.6401H19.9551C19.9023 22.6401 19.8613 22.6079 19.832 22.5435C19.8027 22.4761 19.7881 22.3633 19.7881 22.2051C19.7881 22.123 19.791 22.0542 19.7969 21.9985C19.8057 21.9429 19.8174 21.8989 19.832 21.8667C19.8467 21.8315 19.8643 21.8066 19.8848 21.792C19.9053 21.7744 19.9287 21.7656 19.9551 21.7656H21.8755C21.9224 21.7656 21.9634 21.7744 21.9985 21.792C22.0366 21.8066 22.0688 21.8301 22.0952 21.8623C22.1245 21.8945 22.1465 21.9341 22.1611 21.981C22.1758 22.0249 22.1831 22.0762 22.1831 22.1348V24.3979C22.1831 24.4858 22.167 24.5635 22.1348 24.6309C22.1055 24.6953 22.0425 24.7466 21.9458 24.7847C21.8521 24.8228 21.7349 24.8623 21.5942 24.9033C21.4536 24.9443 21.3071 24.9795 21.1548 25.0088C21.0054 25.0381 20.853 25.0601 20.6978 25.0747C20.5454 25.0894 20.3916 25.0967 20.2363 25.0967C19.7822 25.0967 19.375 25.0322 19.0146 24.9033C18.6572 24.7715 18.354 24.5825 18.105 24.3364C17.856 24.0874 17.6655 23.7856 17.5337 23.4312C17.4019 23.0737 17.3359 22.6694 17.3359 22.2183C17.3359 21.7524 17.4062 21.335 17.5469 20.9658C17.6875 20.5938 17.8867 20.2788 18.1445 20.021C18.4023 19.7603 18.7129 19.561 19.0762 19.4233C19.4424 19.2856 19.8496 19.2168 20.2979 19.2168C20.5439 19.2168 20.7681 19.2344 20.9702 19.2695C21.1724 19.3018 21.3481 19.3428 21.4976 19.3926C21.6499 19.4395 21.7759 19.4907 21.8755 19.5464C21.9751 19.6021 22.0439 19.6504 22.082 19.6914C22.123 19.7324 22.1523 19.791 22.1699 19.8672C22.1875 19.9404 22.1963 20.0503 22.1963 20.1968Z" fill="#3393A9"/>
<path d="M22 11H27L18 2V7C18 9.20914 19.7909 11 22 11Z" fill="#A9DDE9"/>
</svg>
