<svg width="32" height="32" viewBox="0 0 32 32" fill="none" xmlns="http://www.w3.org/2000/svg">
<path d="M17.5858 2H9C6.79086 2 5 3.79086 5 6V26C5 28.2091 6.79086 30 9 30H23C25.2091 30 27 28.2091 27 26V11.4142C27 11.149 26.8946 10.8946 26.7071 10.7071L18.2929 2.29289C18.1054 2.10536 17.851 2 17.5858 2Z" fill="#E2E8F4"/>
<path d="M13.7578 21.0405C13.7578 21.3599 13.708 21.6426 13.6084 21.8887C13.5088 22.1348 13.3638 22.3428 13.1733 22.5127C12.9829 22.6797 12.7485 22.8071 12.4702 22.895C12.1948 22.9829 11.8696 23.0269 11.4946 23.0269H11.02V24.8418C11.02 24.8711 11.0098 24.8975 10.9893 24.9209C10.9717 24.9443 10.9409 24.9634 10.897 24.978C10.853 24.9927 10.7944 25.0044 10.7212 25.0132C10.6479 25.022 10.5542 25.0264 10.4399 25.0264C10.3286 25.0264 10.2349 25.022 10.1587 25.0132C10.0854 25.0044 10.0269 24.9927 9.98291 24.978C9.93896 24.9634 9.9082 24.9443 9.89062 24.9209C9.87305 24.8975 9.86426 24.8711 9.86426 24.8418V19.7266C9.86426 19.5889 9.89941 19.4863 9.96973 19.4189C10.043 19.3486 10.1382 19.3135 10.2554 19.3135H11.5957C11.7305 19.3135 11.8579 19.3193 11.978 19.3311C12.1011 19.3398 12.2476 19.3618 12.4175 19.397C12.5874 19.4292 12.7588 19.4907 12.9316 19.5815C13.1074 19.6724 13.2568 19.7881 13.3799 19.9287C13.5029 20.0664 13.5967 20.229 13.6611 20.4165C13.7256 20.6011 13.7578 20.8091 13.7578 21.0405ZM12.5493 21.124C12.5493 20.9248 12.5142 20.7607 12.4438 20.6318C12.3735 20.5029 12.2871 20.4077 12.1846 20.3462C12.082 20.2847 11.9736 20.2466 11.8594 20.2319C11.748 20.2144 11.6323 20.2056 11.5122 20.2056H11.02V22.1348H11.5386C11.7231 22.1348 11.877 22.1099 12 22.0601C12.126 22.0103 12.2285 21.9414 12.3076 21.8535C12.3867 21.7627 12.4468 21.6558 12.4878 21.5327C12.5288 21.4067 12.5493 21.2705 12.5493 21.124ZM18.5874 24.1387C18.5874 24.2119 18.5845 24.2749 18.5786 24.3276C18.5757 24.3774 18.5698 24.4214 18.561 24.4595C18.5522 24.4946 18.5405 24.5254 18.5259 24.5518C18.5112 24.5781 18.4878 24.6089 18.4556 24.644C18.4233 24.6763 18.3604 24.7188 18.2666 24.7715C18.1758 24.8242 18.063 24.8755 17.9282 24.9253C17.7964 24.9722 17.644 25.0117 17.4712 25.0439C17.3013 25.0762 17.1167 25.0923 16.9175 25.0923C16.5278 25.0923 16.1763 25.0322 15.8628 24.9121C15.5493 24.792 15.2827 24.6133 15.063 24.376C14.8433 24.1357 14.6748 23.8369 14.5576 23.4795C14.4404 23.1221 14.3818 22.7061 14.3818 22.2314C14.3818 21.748 14.4463 21.3188 14.5752 20.9438C14.7041 20.5688 14.8843 20.2539 15.1157 19.999C15.3472 19.7441 15.624 19.5508 15.9463 19.4189C16.2715 19.2871 16.6289 19.2212 17.0186 19.2212C17.1768 19.2212 17.3291 19.2344 17.4756 19.2607C17.6221 19.2871 17.7568 19.3223 17.8799 19.3662C18.0059 19.4072 18.1187 19.4556 18.2183 19.5112C18.3179 19.5669 18.3867 19.6152 18.4248 19.6562C18.4658 19.6943 18.4937 19.7266 18.5083 19.7529C18.5229 19.7793 18.5347 19.813 18.5435 19.854C18.5522 19.895 18.5581 19.9434 18.561 19.999C18.5669 20.0547 18.5698 20.1235 18.5698 20.2056C18.5698 20.2935 18.5669 20.3682 18.561 20.4297C18.5552 20.4912 18.5449 20.541 18.5303 20.5791C18.5156 20.6172 18.498 20.645 18.4775 20.6626C18.457 20.6802 18.4336 20.689 18.4072 20.689C18.3633 20.689 18.3076 20.6641 18.2402 20.6143C18.1729 20.5615 18.085 20.5044 17.9766 20.4429C17.8711 20.3784 17.7437 20.3213 17.5942 20.2715C17.4478 20.2188 17.272 20.1924 17.0669 20.1924C16.8413 20.1924 16.6392 20.2393 16.4604 20.333C16.2847 20.4238 16.1338 20.5557 16.0078 20.7285C15.8848 20.8984 15.791 21.105 15.7266 21.3481C15.6621 21.5913 15.6299 21.8652 15.6299 22.1699C15.6299 22.5039 15.6636 22.7939 15.731 23.04C15.8013 23.2832 15.8994 23.4839 16.0254 23.6421C16.1543 23.8003 16.3081 23.9189 16.4868 23.998C16.6685 24.0742 16.8721 24.1123 17.0977 24.1123C17.3027 24.1123 17.48 24.0889 17.6294 24.042C17.7788 23.9922 17.9062 23.938 18.0117 23.8794C18.1201 23.8208 18.208 23.7681 18.2754 23.7212C18.3457 23.6743 18.3999 23.6509 18.438 23.6509C18.4673 23.6509 18.4907 23.6567 18.5083 23.6685C18.5259 23.6802 18.5405 23.7036 18.5522 23.7388C18.564 23.7739 18.5728 23.8237 18.5786 23.8882C18.5845 23.9497 18.5874 24.0332 18.5874 24.1387ZM23.4697 24.5649C23.5225 24.6675 23.5562 24.7495 23.5708 24.811C23.5884 24.8726 23.5796 24.9194 23.5444 24.9517C23.5093 24.9839 23.4448 25.0044 23.3511 25.0132C23.2603 25.022 23.1328 25.0264 22.9688 25.0264C22.8311 25.0264 22.7227 25.0234 22.6436 25.0176C22.5645 25.0117 22.5015 25.0029 22.4546 24.9912C22.4106 24.9766 22.3784 24.9575 22.3579 24.9341C22.3374 24.9106 22.3198 24.8813 22.3052 24.8462L21.2373 22.7939L20.1738 24.8462C20.1562 24.8813 20.1372 24.9106 20.1167 24.9341C20.0962 24.9575 20.0625 24.9766 20.0156 24.9912C19.9717 25.0029 19.9087 25.0117 19.8267 25.0176C19.7476 25.0234 19.6421 25.0264 19.5103 25.0264C19.3579 25.0264 19.2393 25.022 19.1543 25.0132C19.0723 25.0044 19.0166 24.9839 18.9873 24.9517C18.958 24.9194 18.9521 24.8726 18.9697 24.811C18.9873 24.7495 19.0239 24.6675 19.0796 24.5649L20.4419 22.082L19.1763 19.7485C19.1235 19.6431 19.0869 19.5596 19.0664 19.498C19.0488 19.4336 19.0562 19.3867 19.0884 19.3574C19.1235 19.3252 19.1865 19.3062 19.2773 19.3003C19.3682 19.2915 19.4971 19.2871 19.6641 19.2871C19.8018 19.2871 19.9102 19.29 19.9893 19.2959C20.0713 19.3018 20.1357 19.312 20.1826 19.3267C20.2295 19.3384 20.2617 19.356 20.2793 19.3794C20.2998 19.4028 20.3188 19.4321 20.3364 19.4673L21.334 21.3481L22.3052 19.4673C22.3228 19.4321 22.3403 19.4028 22.3579 19.3794C22.3784 19.356 22.4092 19.3384 22.4502 19.3267C22.4941 19.312 22.5527 19.3018 22.626 19.2959C22.7021 19.29 22.8062 19.2871 22.938 19.2871C23.0845 19.2871 23.2002 19.2915 23.2852 19.3003C23.3701 19.3062 23.4287 19.3252 23.4609 19.3574C23.4932 19.3896 23.5005 19.4365 23.4829 19.498C23.4683 19.5596 23.436 19.6431 23.3862 19.7485L22.1206 22.0688L23.4697 24.5649Z" fill="#5987C4"/>
<path d="M18 11H27L18 2V11Z" fill="#A9C5E9"/>
</svg>
