<svg width="32" height="32" viewBox="0 0 32 32" fill="none" xmlns="http://www.w3.org/2000/svg">
<path d="M17.5858 2H9C6.79086 2 5 3.79086 5 6V26C5 28.2091 6.79086 30 9 30H23C25.2091 30 27 28.2091 27 26V11.4142C27 11.149 26.8946 10.8946 26.7071 10.7071L18.2929 2.29289C18.1054 2.10536 17.851 2 17.5858 2Z" fill="#DFEDFF"/>
<path d="M12.2822 21.0405C12.2822 21.3599 12.2324 21.6426 12.1328 21.8887C12.0332 22.1348 11.8882 22.3428 11.6978 22.5127C11.5073 22.6797 11.2729 22.8071 10.9946 22.895C10.7192 22.9829 10.394 23.0269 10.019 23.0269H9.54443V24.8418C9.54443 24.8711 9.53418 24.8975 9.51367 24.9209C9.49609 24.9443 9.46533 24.9634 9.42139 24.978C9.37744 24.9927 9.31885 25.0044 9.24561 25.0132C9.17236 25.022 9.07861 25.0264 8.96436 25.0264C8.85303 25.0264 8.75928 25.022 8.68311 25.0132C8.60986 25.0044 8.55127 24.9927 8.50732 24.978C8.46338 24.9634 8.43262 24.9443 8.41504 24.9209C8.39746 24.8975 8.38867 24.8711 8.38867 24.8418V19.7266C8.38867 19.5889 8.42383 19.4863 8.49414 19.4189C8.56738 19.3486 8.6626 19.3135 8.77979 19.3135H10.1201C10.2549 19.3135 10.3823 19.3193 10.5024 19.3311C10.6255 19.3398 10.772 19.3618 10.9419 19.397C11.1118 19.4292 11.2832 19.4907 11.4561 19.5815C11.6318 19.6724 11.7812 19.7881 11.9043 19.9287C12.0273 20.0664 12.1211 20.229 12.1855 20.4165C12.25 20.6011 12.2822 20.8091 12.2822 21.0405ZM11.0737 21.124C11.0737 20.9248 11.0386 20.7607 10.9683 20.6318C10.8979 20.5029 10.8115 20.4077 10.709 20.3462C10.6064 20.2847 10.498 20.2466 10.3838 20.2319C10.2725 20.2144 10.1567 20.2056 10.0366 20.2056H9.54443V22.1348H10.063C10.2476 22.1348 10.4014 22.1099 10.5244 22.0601C10.6504 22.0103 10.7529 21.9414 10.832 21.8535C10.9111 21.7627 10.9712 21.6558 11.0122 21.5327C11.0532 21.4067 11.0737 21.2705 11.0737 21.124ZM17.8677 24.5957C17.8677 24.6631 17.856 24.7231 17.8325 24.7759C17.8091 24.8286 17.7769 24.8726 17.7358 24.9077C17.6978 24.9429 17.6509 24.9692 17.5952 24.9868C17.5425 25.0015 17.4883 25.0088 17.4326 25.0088H16.9404C16.8379 25.0088 16.7485 24.9985 16.6724 24.978C16.5991 24.9575 16.5303 24.9209 16.4658 24.8682C16.4043 24.8125 16.3442 24.7393 16.2856 24.6484C16.2271 24.5547 16.1611 24.4346 16.0879 24.2881L14.6729 21.6294C14.5908 21.4712 14.5073 21.3013 14.4224 21.1196C14.3374 20.9351 14.2612 20.7563 14.1938 20.5835H14.1851C14.1968 20.7944 14.2056 21.0054 14.2114 21.2163C14.2173 21.4243 14.2202 21.6396 14.2202 21.8623V24.8374C14.2202 24.8667 14.2114 24.8931 14.1938 24.9165C14.1792 24.9399 14.1514 24.9604 14.1104 24.978C14.0723 24.9927 14.0195 25.0044 13.9521 25.0132C13.8848 25.022 13.7983 25.0264 13.6929 25.0264C13.5903 25.0264 13.5054 25.022 13.438 25.0132C13.3706 25.0044 13.3179 24.9927 13.2798 24.978C13.2417 24.9604 13.2153 24.9399 13.2007 24.9165C13.186 24.8931 13.1787 24.8667 13.1787 24.8374V19.7266C13.1787 19.5889 13.2183 19.4863 13.2974 19.4189C13.3794 19.3486 13.479 19.3135 13.5962 19.3135H14.2158C14.3271 19.3135 14.4209 19.3237 14.4971 19.3442C14.5732 19.3618 14.6406 19.3926 14.6992 19.4365C14.7607 19.4805 14.8179 19.542 14.8706 19.6211C14.9233 19.6973 14.9775 19.7925 15.0332 19.9067L16.1406 21.9854C16.2051 22.1113 16.2681 22.2358 16.3296 22.3589C16.394 22.479 16.4556 22.6006 16.5142 22.7236C16.5728 22.8438 16.6299 22.9624 16.6855 23.0796C16.7412 23.1968 16.7954 23.314 16.8481 23.4312H16.8525C16.8438 23.2261 16.8364 23.0122 16.8306 22.7896C16.8276 22.5669 16.8262 22.3545 16.8262 22.1523V19.4849C16.8262 19.4556 16.835 19.4292 16.8525 19.4058C16.8701 19.3823 16.8994 19.3618 16.9404 19.3442C16.9814 19.3267 17.0356 19.3149 17.103 19.3091C17.1704 19.3003 17.2568 19.2959 17.3623 19.2959C17.4619 19.2959 17.5454 19.3003 17.6128 19.3091C17.6802 19.3149 17.7314 19.3267 17.7666 19.3442C17.8047 19.3618 17.8311 19.3823 17.8457 19.4058C17.8604 19.4292 17.8677 19.4556 17.8677 19.4849V24.5957ZM23.6729 20.1968C23.6729 20.2817 23.6685 20.355 23.6597 20.4165C23.6538 20.478 23.6436 20.5278 23.6289 20.5659C23.6172 20.6011 23.6011 20.626 23.5806 20.6406C23.563 20.6553 23.541 20.6626 23.5146 20.6626C23.4766 20.6626 23.415 20.6362 23.3301 20.5835C23.2451 20.5308 23.1323 20.4736 22.9917 20.4121C22.8511 20.3506 22.6826 20.2935 22.4863 20.2407C22.293 20.188 22.0674 20.1616 21.8096 20.1616C21.5342 20.1616 21.2852 20.21 21.0625 20.3066C20.8398 20.4004 20.6494 20.5352 20.4912 20.7109C20.333 20.8838 20.2114 21.0933 20.1265 21.3394C20.0415 21.5825 19.999 21.8521 19.999 22.1479C19.999 22.4731 20.0415 22.7603 20.1265 23.0093C20.2144 23.2554 20.3359 23.4619 20.4912 23.6289C20.6465 23.7959 20.8325 23.9219 21.0493 24.0068C21.269 24.0918 21.5107 24.1343 21.7744 24.1343C21.9033 24.1343 22.0308 24.1196 22.1567 24.0903C22.2827 24.061 22.3999 24.0171 22.5083 23.9585V22.6401H21.4316C21.3789 22.6401 21.3379 22.6079 21.3086 22.5435C21.2793 22.4761 21.2646 22.3633 21.2646 22.2051C21.2646 22.123 21.2676 22.0542 21.2734 21.9985C21.2822 21.9429 21.2939 21.8989 21.3086 21.8667C21.3232 21.8315 21.3408 21.8066 21.3613 21.792C21.3818 21.7744 21.4053 21.7656 21.4316 21.7656H23.3521C23.3989 21.7656 23.4399 21.7744 23.4751 21.792C23.5132 21.8066 23.5454 21.8301 23.5718 21.8623C23.6011 21.8945 23.623 21.9341 23.6377 21.981C23.6523 22.0249 23.6597 22.0762 23.6597 22.1348V24.3979C23.6597 24.4858 23.6436 24.5635 23.6113 24.6309C23.582 24.6953 23.519 24.7466 23.4224 24.7847C23.3286 24.8228 23.2114 24.8623 23.0708 24.9033C22.9302 24.9443 22.7837 24.9795 22.6313 25.0088C22.4819 25.0381 22.3296 25.0601 22.1743 25.0747C22.022 25.0894 21.8682 25.0967 21.7129 25.0967C21.2588 25.0967 20.8516 25.0322 20.4912 24.9033C20.1338 24.7715 19.8306 24.5825 19.5815 24.3364C19.3325 24.0874 19.1421 23.7856 19.0103 23.4312C18.8784 23.0737 18.8125 22.6694 18.8125 22.2183C18.8125 21.7524 18.8828 21.335 19.0234 20.9658C19.1641 20.5938 19.3633 20.2788 19.6211 20.021C19.8789 19.7603 20.1895 19.561 20.5527 19.4233C20.9189 19.2856 21.3262 19.2168 21.7744 19.2168C22.0205 19.2168 22.2446 19.2344 22.4468 19.2695C22.6489 19.3018 22.8247 19.3428 22.9741 19.3926C23.1265 19.4395 23.2524 19.4907 23.3521 19.5464C23.4517 19.6021 23.5205 19.6504 23.5586 19.6914C23.5996 19.7324 23.6289 19.791 23.6465 19.8672C23.6641 19.9404 23.6729 20.0503 23.6729 20.1968Z" fill="#215AAB"/>
<path d="M22 11H27L18 2V7C18 9.20914 19.7909 11 22 11Z" fill="#A3C9FE"/>
</svg>
