<svg width="32" height="32" viewBox="0 0 32 32" fill="none" xmlns="http://www.w3.org/2000/svg">
<path d="M17.5858 2H9C6.79086 2 5 3.79086 5 6V26C5 28.2091 6.79086 30 9 30H23C25.2091 30 27 28.2091 27 26V11.4142C27 11.149 26.8946 10.8946 26.7071 10.7071L18.2929 2.29289C18.1054 2.10536 17.851 2 17.5858 2Z" fill="#FFE0CA"/>
<path d="M13.5083 21.0405C13.5083 21.3599 13.4585 21.6426 13.3589 21.8887C13.2593 22.1348 13.1143 22.3428 12.9238 22.5127C12.7334 22.6797 12.499 22.8071 12.2207 22.895C11.9453 22.9829 11.6201 23.0269 11.2451 23.0269H10.7705V24.8418C10.7705 24.8711 10.7603 24.8975 10.7397 24.9209C10.7222 24.9443 10.6914 24.9634 10.6475 24.978C10.6035 24.9927 10.5449 25.0044 10.4717 25.0132C10.3984 25.022 10.3047 25.0264 10.1904 25.0264C10.0791 25.0264 9.98535 25.022 9.90918 25.0132C9.83594 25.0044 9.77734 24.9927 9.7334 24.978C9.68945 24.9634 9.65869 24.9443 9.64111 24.9209C9.62354 24.8975 9.61475 24.8711 9.61475 24.8418V19.7266C9.61475 19.5889 9.6499 19.4863 9.72021 19.4189C9.79346 19.3486 9.88867 19.3135 10.0059 19.3135H11.3462C11.481 19.3135 11.6084 19.3193 11.7285 19.3311C11.8516 19.3398 11.998 19.3618 12.168 19.397C12.3379 19.4292 12.5093 19.4907 12.6821 19.5815C12.8579 19.6724 13.0073 19.7881 13.1304 19.9287C13.2534 20.0664 13.3472 20.229 13.4116 20.4165C13.4761 20.6011 13.5083 20.8091 13.5083 21.0405ZM12.2998 21.124C12.2998 20.9248 12.2646 20.7607 12.1943 20.6318C12.124 20.5029 12.0376 20.4077 11.9351 20.3462C11.8325 20.2847 11.7241 20.2466 11.6099 20.2319C11.4985 20.2144 11.3828 20.2056 11.2627 20.2056H10.7705V22.1348H11.2891C11.4736 22.1348 11.6274 22.1099 11.7505 22.0601C11.8765 22.0103 11.979 21.9414 12.0581 21.8535C12.1372 21.7627 12.1973 21.6558 12.2383 21.5327C12.2793 21.4067 12.2998 21.2705 12.2998 21.124ZM18.2983 21.0405C18.2983 21.3599 18.2485 21.6426 18.1489 21.8887C18.0493 22.1348 17.9043 22.3428 17.7139 22.5127C17.5234 22.6797 17.2891 22.8071 17.0107 22.895C16.7354 22.9829 16.4102 23.0269 16.0352 23.0269H15.5605V24.8418C15.5605 24.8711 15.5503 24.8975 15.5298 24.9209C15.5122 24.9443 15.4814 24.9634 15.4375 24.978C15.3936 24.9927 15.335 25.0044 15.2617 25.0132C15.1885 25.022 15.0947 25.0264 14.9805 25.0264C14.8691 25.0264 14.7754 25.022 14.6992 25.0132C14.626 25.0044 14.5674 24.9927 14.5234 24.978C14.4795 24.9634 14.4487 24.9443 14.4312 24.9209C14.4136 24.8975 14.4048 24.8711 14.4048 24.8418V19.7266C14.4048 19.5889 14.4399 19.4863 14.5103 19.4189C14.5835 19.3486 14.6787 19.3135 14.7959 19.3135H16.1362C16.271 19.3135 16.3984 19.3193 16.5186 19.3311C16.6416 19.3398 16.7881 19.3618 16.958 19.397C17.1279 19.4292 17.2993 19.4907 17.4722 19.5815C17.6479 19.6724 17.7974 19.7881 17.9204 19.9287C18.0435 20.0664 18.1372 20.229 18.2017 20.4165C18.2661 20.6011 18.2983 20.8091 18.2983 21.0405ZM17.0898 21.124C17.0898 20.9248 17.0547 20.7607 16.9844 20.6318C16.9141 20.5029 16.8276 20.4077 16.7251 20.3462C16.6226 20.2847 16.5142 20.2466 16.3999 20.2319C16.2886 20.2144 16.1729 20.2056 16.0527 20.2056H15.5605V22.1348H16.0791C16.2637 22.1348 16.4175 22.1099 16.5405 22.0601C16.6665 22.0103 16.769 21.9414 16.8481 21.8535C16.9272 21.7627 16.9873 21.6558 17.0283 21.5327C17.0693 21.4067 17.0898 21.2705 17.0898 21.124ZM22.9521 19.7881C22.9521 19.873 22.9478 19.9463 22.939 20.0078C22.9331 20.0664 22.9229 20.1147 22.9082 20.1528C22.8936 20.188 22.8745 20.2144 22.8511 20.2319C22.8306 20.2495 22.8071 20.2583 22.7808 20.2583H21.3569V24.8418C21.3569 24.8711 21.3467 24.8975 21.3262 24.9209C21.3086 24.9443 21.2778 24.9634 21.2339 24.978C21.1899 24.9927 21.1299 25.0044 21.0537 25.0132C20.9805 25.022 20.8882 25.0264 20.7769 25.0264C20.6655 25.0264 20.5718 25.022 20.4956 25.0132C20.4224 25.0044 20.3638 24.9927 20.3198 24.978C20.2759 24.9634 20.2437 24.9443 20.2231 24.9209C20.2056 24.8975 20.1968 24.8711 20.1968 24.8418V20.2583H18.7729C18.7437 20.2583 18.7188 20.2495 18.6982 20.2319C18.6777 20.2144 18.6602 20.188 18.6455 20.1528C18.6309 20.1147 18.6191 20.0664 18.6104 20.0078C18.6045 19.9463 18.6016 19.873 18.6016 19.7881C18.6016 19.7002 18.6045 19.6255 18.6104 19.564C18.6191 19.5024 18.6309 19.4541 18.6455 19.4189C18.6602 19.3809 18.6777 19.3545 18.6982 19.3398C18.7188 19.3223 18.7437 19.3135 18.7729 19.3135H22.7808C22.8071 19.3135 22.8306 19.3223 22.8511 19.3398C22.8745 19.3545 22.8936 19.3809 22.9082 19.4189C22.9229 19.4541 22.9331 19.5024 22.939 19.564C22.9478 19.6255 22.9521 19.7002 22.9521 19.7881Z" fill="#ED602C"/>
<path d="M22 11H27L18 2V7C18 9.20914 19.7909 11 22 11Z" fill="#FB9F78"/>
</svg>
