<svg width="32" height="32" viewBox="0 0 32 32" fill="none" xmlns="http://www.w3.org/2000/svg">
<path d="M17.5858 2H9C6.79086 2 5 3.79086 5 6V26C5 28.2091 6.79086 30 9 30H23C25.2091 30 27 28.2091 27 26V11.4142C27 11.149 26.8946 10.8946 26.7071 10.7071L18.2929 2.29289C18.1054 2.10536 17.851 2 17.5858 2Z" fill="#FFE0CA"/>
<path d="M11.0298 21.0405C11.0298 21.3599 10.98 21.6426 10.8804 21.8887C10.7808 22.1348 10.6357 22.3428 10.4453 22.5127C10.2549 22.6797 10.0205 22.8071 9.74219 22.895C9.4668 22.9829 9.1416 23.0269 8.7666 23.0269H8.29199V24.8418C8.29199 24.8711 8.28174 24.8975 8.26123 24.9209C8.24365 24.9443 8.21289 24.9634 8.16895 24.978C8.125 24.9927 8.06641 25.0044 7.99316 25.0132C7.91992 25.022 7.82617 25.0264 7.71191 25.0264C7.60059 25.0264 7.50684 25.022 7.43066 25.0132C7.35742 25.0044 7.29883 24.9927 7.25488 24.978C7.21094 24.9634 7.18018 24.9443 7.1626 24.9209C7.14502 24.8975 7.13623 24.8711 7.13623 24.8418V19.7266C7.13623 19.5889 7.17139 19.4863 7.2417 19.4189C7.31494 19.3486 7.41016 19.3135 7.52734 19.3135H8.86768C9.00244 19.3135 9.12988 19.3193 9.25 19.3311C9.37305 19.3398 9.51953 19.3618 9.68945 19.397C9.85938 19.4292 10.0308 19.4907 10.2036 19.5815C10.3794 19.6724 10.5288 19.7881 10.6519 19.9287C10.7749 20.0664 10.8687 20.229 10.9331 20.4165C10.9976 20.6011 11.0298 20.8091 11.0298 21.0405ZM9.82129 21.124C9.82129 20.9248 9.78613 20.7607 9.71582 20.6318C9.64551 20.5029 9.55908 20.4077 9.45654 20.3462C9.354 20.2847 9.24561 20.2466 9.13135 20.2319C9.02002 20.2144 8.9043 20.2056 8.78418 20.2056H8.29199V22.1348H8.81055C8.99512 22.1348 9.14893 22.1099 9.27197 22.0601C9.39795 22.0103 9.50049 21.9414 9.57959 21.8535C9.65869 21.7627 9.71875 21.6558 9.75977 21.5327C9.80078 21.4067 9.82129 21.2705 9.82129 21.124ZM15.8198 21.0405C15.8198 21.3599 15.77 21.6426 15.6704 21.8887C15.5708 22.1348 15.4258 22.3428 15.2354 22.5127C15.0449 22.6797 14.8105 22.8071 14.5322 22.895C14.2568 22.9829 13.9316 23.0269 13.5566 23.0269H13.082V24.8418C13.082 24.8711 13.0718 24.8975 13.0513 24.9209C13.0337 24.9443 13.0029 24.9634 12.959 24.978C12.915 24.9927 12.8564 25.0044 12.7832 25.0132C12.71 25.022 12.6162 25.0264 12.502 25.0264C12.3906 25.0264 12.2969 25.022 12.2207 25.0132C12.1475 25.0044 12.0889 24.9927 12.0449 24.978C12.001 24.9634 11.9702 24.9443 11.9526 24.9209C11.9351 24.8975 11.9263 24.8711 11.9263 24.8418V19.7266C11.9263 19.5889 11.9614 19.4863 12.0317 19.4189C12.105 19.3486 12.2002 19.3135 12.3174 19.3135H13.6577C13.7925 19.3135 13.9199 19.3193 14.04 19.3311C14.1631 19.3398 14.3096 19.3618 14.4795 19.397C14.6494 19.4292 14.8208 19.4907 14.9937 19.5815C15.1694 19.6724 15.3188 19.7881 15.4419 19.9287C15.5649 20.0664 15.6587 20.229 15.7231 20.4165C15.7876 20.6011 15.8198 20.8091 15.8198 21.0405ZM14.6113 21.124C14.6113 20.9248 14.5762 20.7607 14.5059 20.6318C14.4355 20.5029 14.3491 20.4077 14.2466 20.3462C14.144 20.2847 14.0356 20.2466 13.9214 20.2319C13.8101 20.2144 13.6943 20.2056 13.5742 20.2056H13.082V22.1348H13.6006C13.7852 22.1348 13.939 22.1099 14.062 22.0601C14.188 22.0103 14.2905 21.9414 14.3696 21.8535C14.4487 21.7627 14.5088 21.6558 14.5498 21.5327C14.5908 21.4067 14.6113 21.2705 14.6113 21.124ZM20.4736 19.7881C20.4736 19.873 20.4692 19.9463 20.4604 20.0078C20.4546 20.0664 20.4443 20.1147 20.4297 20.1528C20.415 20.188 20.396 20.2144 20.3726 20.2319C20.3521 20.2495 20.3286 20.2583 20.3022 20.2583H18.8784V24.8418C18.8784 24.8711 18.8682 24.8975 18.8477 24.9209C18.8301 24.9443 18.7993 24.9634 18.7554 24.978C18.7114 24.9927 18.6514 25.0044 18.5752 25.0132C18.502 25.022 18.4097 25.0264 18.2983 25.0264C18.187 25.0264 18.0933 25.022 18.0171 25.0132C17.9438 25.0044 17.8853 24.9927 17.8413 24.978C17.7974 24.9634 17.7651 24.9443 17.7446 24.9209C17.7271 24.8975 17.7183 24.8711 17.7183 24.8418V20.2583H16.2944C16.2651 20.2583 16.2402 20.2495 16.2197 20.2319C16.1992 20.2144 16.1816 20.188 16.167 20.1528C16.1523 20.1147 16.1406 20.0664 16.1318 20.0078C16.126 19.9463 16.123 19.873 16.123 19.7881C16.123 19.7002 16.126 19.6255 16.1318 19.564C16.1406 19.5024 16.1523 19.4541 16.167 19.4189C16.1816 19.3809 16.1992 19.3545 16.2197 19.3398C16.2402 19.3223 16.2651 19.3135 16.2944 19.3135H20.3022C20.3286 19.3135 20.3521 19.3223 20.3726 19.3398C20.396 19.3545 20.415 19.3809 20.4297 19.4189C20.4443 19.4541 20.4546 19.5024 20.4604 19.564C20.4692 19.6255 20.4736 19.7002 20.4736 19.7881ZM25.1978 24.5649C25.2505 24.6675 25.2842 24.7495 25.2988 24.811C25.3164 24.8726 25.3076 24.9194 25.2725 24.9517C25.2373 24.9839 25.1729 25.0044 25.0791 25.0132C24.9883 25.022 24.8608 25.0264 24.6968 25.0264C24.5591 25.0264 24.4507 25.0234 24.3716 25.0176C24.2925 25.0117 24.2295 25.0029 24.1826 24.9912C24.1387 24.9766 24.1064 24.9575 24.0859 24.9341C24.0654 24.9106 24.0479 24.8813 24.0332 24.8462L22.9653 22.7939L21.9019 24.8462C21.8843 24.8813 21.8652 24.9106 21.8447 24.9341C21.8242 24.9575 21.7905 24.9766 21.7437 24.9912C21.6997 25.0029 21.6367 25.0117 21.5547 25.0176C21.4756 25.0234 21.3701 25.0264 21.2383 25.0264C21.0859 25.0264 20.9673 25.022 20.8823 25.0132C20.8003 25.0044 20.7446 24.9839 20.7153 24.9517C20.686 24.9194 20.6802 24.8726 20.6978 24.811C20.7153 24.7495 20.752 24.6675 20.8076 24.5649L22.1699 22.082L20.9043 19.7485C20.8516 19.6431 20.8149 19.5596 20.7944 19.498C20.7769 19.4336 20.7842 19.3867 20.8164 19.3574C20.8516 19.3252 20.9146 19.3062 21.0054 19.3003C21.0962 19.2915 21.2251 19.2871 21.3921 19.2871C21.5298 19.2871 21.6382 19.29 21.7173 19.2959C21.7993 19.3018 21.8638 19.312 21.9106 19.3267C21.9575 19.3384 21.9897 19.356 22.0073 19.3794C22.0278 19.4028 22.0469 19.4321 22.0645 19.4673L23.062 21.3481L24.0332 19.4673C24.0508 19.4321 24.0684 19.4028 24.0859 19.3794C24.1064 19.356 24.1372 19.3384 24.1782 19.3267C24.2222 19.312 24.2808 19.3018 24.354 19.2959C24.4302 19.29 24.5342 19.2871 24.666 19.2871C24.8125 19.2871 24.9282 19.2915 25.0132 19.3003C25.0981 19.3062 25.1567 19.3252 25.189 19.3574C25.2212 19.3896 25.2285 19.4365 25.2109 19.498C25.1963 19.5596 25.1641 19.6431 25.1143 19.7485L23.8486 22.0688L25.1978 24.5649Z" fill="#ED602C"/>
<path d="M22 11H27L18 2V7C18 9.20914 19.7909 11 22 11Z" fill="#FB9F78"/>
</svg>
