<svg width="32" height="32" viewBox="0 0 32 32" fill="none" xmlns="http://www.w3.org/2000/svg">
<path d="M17.5858 2H9C6.79086 2 5 3.79086 5 6V26C5 28.2091 6.79086 30 9 30H23C25.2091 30 27 28.2091 27 26V11.4142C27 11.149 26.8946 10.8946 26.7071 10.7071L18.2929 2.29289C18.1054 2.10536 17.851 2 17.5858 2Z" fill="#DFEDF0"/>
<path d="M13.4688 19.7881C13.4688 19.873 13.4644 19.9463 13.4556 20.0078C13.4497 20.0664 13.4395 20.1147 13.4248 20.1528C13.4102 20.188 13.3911 20.2144 13.3677 20.2319C13.3472 20.2495 13.3237 20.2583 13.2974 20.2583H11.8735V24.8418C11.8735 24.8711 11.8633 24.8975 11.8428 24.9209C11.8252 24.9443 11.7944 24.9634 11.7505 24.978C11.7065 24.9927 11.6465 25.0044 11.5703 25.0132C11.4971 25.022 11.4048 25.0264 11.2935 25.0264C11.1821 25.0264 11.0884 25.022 11.0122 25.0132C10.939 25.0044 10.8804 24.9927 10.8364 24.978C10.7925 24.9634 10.7603 24.9443 10.7397 24.9209C10.7222 24.8975 10.7134 24.8711 10.7134 24.8418V20.2583H9.28955C9.26025 20.2583 9.23535 20.2495 9.21484 20.2319C9.19434 20.2144 9.17676 20.188 9.16211 20.1528C9.14746 20.1147 9.13574 20.0664 9.12695 20.0078C9.12109 19.9463 9.11816 19.873 9.11816 19.7881C9.11816 19.7002 9.12109 19.6255 9.12695 19.564C9.13574 19.5024 9.14746 19.4541 9.16211 19.4189C9.17676 19.3809 9.19434 19.3545 9.21484 19.3398C9.23535 19.3223 9.26025 19.3135 9.28955 19.3135H13.2974C13.3237 19.3135 13.3472 19.3223 13.3677 19.3398C13.3911 19.3545 13.4102 19.3809 13.4248 19.4189C13.4395 19.4541 13.4497 19.5024 13.4556 19.564C13.4644 19.6255 13.4688 19.7002 13.4688 19.7881ZM18.1929 24.5649C18.2456 24.6675 18.2793 24.7495 18.2939 24.811C18.3115 24.8726 18.3027 24.9194 18.2676 24.9517C18.2324 24.9839 18.168 25.0044 18.0742 25.0132C17.9834 25.022 17.856 25.0264 17.6919 25.0264C17.5542 25.0264 17.4458 25.0234 17.3667 25.0176C17.2876 25.0117 17.2246 25.0029 17.1777 24.9912C17.1338 24.9766 17.1016 24.9575 17.0811 24.9341C17.0605 24.9106 17.043 24.8813 17.0283 24.8462L15.9604 22.7939L14.897 24.8462C14.8794 24.8813 14.8604 24.9106 14.8398 24.9341C14.8193 24.9575 14.7856 24.9766 14.7388 24.9912C14.6948 25.0029 14.6318 25.0117 14.5498 25.0176C14.4707 25.0234 14.3652 25.0264 14.2334 25.0264C14.0811 25.0264 13.9624 25.022 13.8774 25.0132C13.7954 25.0044 13.7397 24.9839 13.7104 24.9517C13.6812 24.9194 13.6753 24.8726 13.6929 24.811C13.7104 24.7495 13.7471 24.6675 13.8027 24.5649L15.165 22.082L13.8994 19.7485C13.8467 19.6431 13.8101 19.5596 13.7896 19.498C13.772 19.4336 13.7793 19.3867 13.8115 19.3574C13.8467 19.3252 13.9097 19.3062 14.0005 19.3003C14.0913 19.2915 14.2202 19.2871 14.3872 19.2871C14.5249 19.2871 14.6333 19.29 14.7124 19.2959C14.7944 19.3018 14.8589 19.312 14.9058 19.3267C14.9526 19.3384 14.9849 19.356 15.0024 19.3794C15.0229 19.4028 15.042 19.4321 15.0596 19.4673L16.0571 21.3481L17.0283 19.4673C17.0459 19.4321 17.0635 19.4028 17.0811 19.3794C17.1016 19.356 17.1323 19.3384 17.1733 19.3267C17.2173 19.312 17.2759 19.3018 17.3491 19.2959C17.4253 19.29 17.5293 19.2871 17.6611 19.2871C17.8076 19.2871 17.9233 19.2915 18.0083 19.3003C18.0933 19.3062 18.1519 19.3252 18.1841 19.3574C18.2163 19.3896 18.2236 19.4365 18.2061 19.498C18.1914 19.5596 18.1592 19.6431 18.1094 19.7485L16.8438 22.0688L18.1929 24.5649ZM22.8818 19.7881C22.8818 19.873 22.8774 19.9463 22.8687 20.0078C22.8628 20.0664 22.8525 20.1147 22.8379 20.1528C22.8232 20.188 22.8042 20.2144 22.7808 20.2319C22.7603 20.2495 22.7368 20.2583 22.7104 20.2583H21.2866V24.8418C21.2866 24.8711 21.2764 24.8975 21.2559 24.9209C21.2383 24.9443 21.2075 24.9634 21.1636 24.978C21.1196 24.9927 21.0596 25.0044 20.9834 25.0132C20.9102 25.022 20.8179 25.0264 20.7065 25.0264C20.5952 25.0264 20.5015 25.022 20.4253 25.0132C20.3521 25.0044 20.2935 24.9927 20.2495 24.978C20.2056 24.9634 20.1733 24.9443 20.1528 24.9209C20.1353 24.8975 20.1265 24.8711 20.1265 24.8418V20.2583H18.7026C18.6733 20.2583 18.6484 20.2495 18.6279 20.2319C18.6074 20.2144 18.5898 20.188 18.5752 20.1528C18.5605 20.1147 18.5488 20.0664 18.54 20.0078C18.5342 19.9463 18.5312 19.873 18.5312 19.7881C18.5312 19.7002 18.5342 19.6255 18.54 19.564C18.5488 19.5024 18.5605 19.4541 18.5752 19.4189C18.5898 19.3809 18.6074 19.3545 18.6279 19.3398C18.6484 19.3223 18.6733 19.3135 18.7026 19.3135H22.7104C22.7368 19.3135 22.7603 19.3223 22.7808 19.3398C22.8042 19.3545 22.8232 19.3809 22.8379 19.4189C22.8525 19.4541 22.8628 19.5024 22.8687 19.564C22.8774 19.6255 22.8818 19.7002 22.8818 19.7881Z" fill="#7DA2AA"/>
<path d="M18 11H27L18 2V11Z" fill="#AACDD4"/>
</svg>
