<svg width="32" height="32" viewBox="0 0 32 32" fill="none" xmlns="http://www.w3.org/2000/svg">
<path d="M17.5858 2H9C6.79086 2 5 3.79086 5 6V26C5 28.2091 6.79086 30 9 30H23C25.2091 30 27 28.2091 27 26V11.4142C27 11.149 26.8946 10.8946 26.7071 10.7071L18.2929 2.29289C18.1054 2.10536 17.851 2 17.5858 2Z" fill="#E3F2DD"/>
<path d="M14.1631 24.5649C14.2158 24.6675 14.2495 24.7495 14.2642 24.811C14.2817 24.8726 14.2729 24.9194 14.2378 24.9517C14.2026 24.9839 14.1382 25.0044 14.0444 25.0132C13.9536 25.022 13.8262 25.0264 13.6621 25.0264C13.5244 25.0264 13.416 25.0234 13.3369 25.0176C13.2578 25.0117 13.1948 25.0029 13.1479 24.9912C13.104 24.9766 13.0718 24.9575 13.0513 24.9341C13.0308 24.9106 13.0132 24.8813 12.9985 24.8462L11.9307 22.7939L10.8672 24.8462C10.8496 24.8813 10.8306 24.9106 10.8101 24.9341C10.7896 24.9575 10.7559 24.9766 10.709 24.9912C10.665 25.0029 10.6021 25.0117 10.52 25.0176C10.4409 25.0234 10.3354 25.0264 10.2036 25.0264C10.0513 25.0264 9.93262 25.022 9.84766 25.0132C9.76562 25.0044 9.70996 24.9839 9.68066 24.9517C9.65137 24.9194 9.64551 24.8726 9.66309 24.811C9.68066 24.7495 9.71729 24.6675 9.77295 24.5649L11.1353 22.082L9.86963 19.7485C9.81689 19.6431 9.78027 19.5596 9.75977 19.498C9.74219 19.4336 9.74951 19.3867 9.78174 19.3574C9.81689 19.3252 9.87988 19.3062 9.9707 19.3003C10.0615 19.2915 10.1904 19.2871 10.3574 19.2871C10.4951 19.2871 10.6035 19.29 10.6826 19.2959C10.7646 19.3018 10.8291 19.312 10.876 19.3267C10.9229 19.3384 10.9551 19.356 10.9727 19.3794C10.9932 19.4028 11.0122 19.4321 11.0298 19.4673L12.0273 21.3481L12.9985 19.4673C13.0161 19.4321 13.0337 19.4028 13.0513 19.3794C13.0718 19.356 13.1025 19.3384 13.1436 19.3267C13.1875 19.312 13.2461 19.3018 13.3193 19.2959C13.3955 19.29 13.4995 19.2871 13.6313 19.2871C13.7778 19.2871 13.8936 19.2915 13.9785 19.3003C14.0635 19.3062 14.1221 19.3252 14.1543 19.3574C14.1865 19.3896 14.1938 19.4365 14.1763 19.498C14.1616 19.5596 14.1294 19.6431 14.0796 19.7485L12.814 22.0688L14.1631 24.5649ZM18.1929 24.5166C18.1929 24.6045 18.1885 24.6792 18.1797 24.7407C18.1738 24.7993 18.1636 24.8491 18.1489 24.8901C18.1343 24.9282 18.1152 24.9561 18.0918 24.9736C18.0713 24.9912 18.0464 25 18.0171 25H15.4111C15.3145 25 15.2324 24.9722 15.165 24.9165C15.1006 24.8579 15.0684 24.7642 15.0684 24.6353V19.4717C15.0684 19.4424 15.0771 19.416 15.0947 19.3926C15.1152 19.3691 15.1475 19.3501 15.1914 19.3354C15.2354 19.3208 15.2939 19.3091 15.3672 19.3003C15.4434 19.2915 15.5371 19.2871 15.6484 19.2871C15.7627 19.2871 15.8564 19.2915 15.9297 19.3003C16.0029 19.3091 16.0615 19.3208 16.1055 19.3354C16.1494 19.3501 16.1802 19.3691 16.1978 19.3926C16.2183 19.416 16.2285 19.4424 16.2285 19.4717V24.0464H18.0171C18.0464 24.0464 18.0713 24.0552 18.0918 24.0728C18.1152 24.0874 18.1343 24.1138 18.1489 24.1519C18.1636 24.187 18.1738 24.2354 18.1797 24.2969C18.1885 24.3555 18.1929 24.4287 18.1929 24.5166ZM22.2446 23.2949C22.2446 23.5938 22.189 23.856 22.0776 24.0815C21.9663 24.3071 21.8154 24.4961 21.625 24.6484C21.4346 24.7979 21.2119 24.9106 20.957 24.9868C20.7021 25.063 20.4297 25.1011 20.1396 25.1011C19.9434 25.1011 19.7603 25.085 19.5903 25.0527C19.4233 25.0205 19.2754 24.9824 19.1465 24.9385C19.0176 24.8916 18.9092 24.8433 18.8213 24.7935C18.7363 24.7437 18.6748 24.6997 18.6367 24.6616C18.5986 24.6235 18.5708 24.5693 18.5532 24.499C18.5386 24.4258 18.5312 24.3218 18.5312 24.187C18.5312 24.0962 18.5342 24.02 18.54 23.9585C18.5459 23.897 18.5547 23.8472 18.5664 23.8091C18.5811 23.771 18.5986 23.7446 18.6191 23.73C18.6426 23.7124 18.6689 23.7036 18.6982 23.7036C18.7393 23.7036 18.7964 23.7285 18.8696 23.7783C18.9458 23.8252 19.0425 23.8779 19.1597 23.9365C19.2769 23.9951 19.416 24.0493 19.5771 24.0991C19.7412 24.146 19.9302 24.1694 20.144 24.1694C20.2847 24.1694 20.4106 24.1533 20.522 24.1211C20.6333 24.0859 20.7271 24.0376 20.8032 23.9761C20.8823 23.9146 20.9424 23.8384 20.9834 23.7476C21.0244 23.6567 21.0449 23.5557 21.0449 23.4443C21.0449 23.3154 21.0098 23.2056 20.9395 23.1147C20.8691 23.021 20.7769 22.939 20.6626 22.8687C20.5513 22.7954 20.4238 22.728 20.2803 22.6665C20.1367 22.6021 19.9888 22.5347 19.8364 22.4644C19.6841 22.394 19.5361 22.3149 19.3926 22.2271C19.249 22.1362 19.1201 22.0293 19.0059 21.9062C18.8945 21.7803 18.8037 21.6323 18.7334 21.4624C18.6631 21.2925 18.6279 21.0889 18.6279 20.8516C18.6279 20.5791 18.6777 20.3403 18.7773 20.1353C18.8799 19.9272 19.0161 19.7559 19.186 19.6211C19.3589 19.4834 19.561 19.3809 19.7925 19.3135C20.0269 19.2461 20.2744 19.2124 20.5352 19.2124C20.6699 19.2124 20.8047 19.2227 20.9395 19.2432C21.0742 19.2637 21.2002 19.2915 21.3174 19.3267C21.4346 19.3618 21.5386 19.4014 21.6294 19.4453C21.7202 19.4893 21.7803 19.5259 21.8096 19.5552C21.8389 19.5845 21.8579 19.6094 21.8667 19.6299C21.8784 19.6504 21.8872 19.6782 21.8931 19.7134C21.9019 19.7456 21.9077 19.7881 21.9106 19.8408C21.9136 19.8906 21.915 19.9536 21.915 20.0298C21.915 20.1147 21.9121 20.1865 21.9062 20.2451C21.9033 20.3037 21.896 20.3521 21.8843 20.3901C21.8755 20.4282 21.8608 20.4561 21.8403 20.4736C21.8228 20.4912 21.7979 20.5 21.7656 20.5C21.7334 20.5 21.6821 20.4795 21.6118 20.4385C21.5415 20.3975 21.4551 20.3535 21.3525 20.3066C21.25 20.2568 21.1313 20.2129 20.9966 20.1748C20.8618 20.1338 20.7139 20.1133 20.5527 20.1133C20.4268 20.1133 20.3169 20.1294 20.2231 20.1616C20.1294 20.1909 20.0503 20.2334 19.9858 20.2891C19.9243 20.3418 19.8774 20.4062 19.8452 20.4824C19.8159 20.5586 19.8013 20.6392 19.8013 20.7241C19.8013 20.8501 19.835 20.96 19.9023 21.0537C19.9727 21.1445 20.0649 21.2266 20.1792 21.2998C20.2964 21.3701 20.4282 21.4375 20.5747 21.502C20.7212 21.5635 20.8706 21.6294 21.0229 21.6997C21.1753 21.77 21.3247 21.8506 21.4712 21.9414C21.6177 22.0293 21.748 22.1362 21.8623 22.2622C21.9766 22.3853 22.0688 22.5317 22.1392 22.7017C22.2095 22.8687 22.2446 23.0664 22.2446 23.2949Z" fill="#55943C"/>
<path d="M22 11H27L18 2V7C18 9.20914 19.7909 11 22 11Z" fill="#86BF70"/>
</svg>
